<svg width="46" height="52" viewBox="0 0 46 52" fill="none" xmlns="http://www.w3.org/2000/svg">
<path d="M10.1438 39.8374C12.299 43.1182 16.301 42.7798 19.2978 41.799C20.905 41.273 23.4358 44.1074 24.2017 44.7414C24.9917 45.3953 30.9038 47.6838 33.0289 43.7606C35.1539 39.8374 33.5193 36.7316 33.0289 35.9142C32.5385 35.0969 30.0865 31.9911 29.2692 27.414C28.4518 22.837 21.3378 23.2783 19.9516 24.1447C16.0285 26.5967 14.5573 30.0295 11.288 31.9911C8.01864 33.9527 8.31816 37.0585 10.1438 39.8374Z" fill="#FCF9E9"/>
<ellipse cx="15.3893" cy="13.835" rx="5.53594" ry="6.7021" transform="rotate(-13.888 15.3893 13.835)" fill="#FCF9E9"/>
<ellipse cx="5.43757" cy="25.7642" rx="5.20398" ry="5.77171" transform="rotate(-13.888 5.43757 25.7642)" fill="#FCF9E9"/>
<ellipse cx="30.7627" cy="15.6981" rx="5.50922" ry="7.93" transform="matrix(0.952636 0.304112 -0.304111 0.952637 6.23099 -8.61179)" fill="#FCF9E9"/>
<ellipse cx="4.76555" cy="6.15511" rx="4.76555" ry="6.15511" transform="matrix(0.764174 0.64501 -0.645008 0.764176 39.687 21.0422)" fill="#FCF9E9"/>
</svg>
