<svg width="1397" height="926" viewBox="0 0 1397 926" fill="none" xmlns="http://www.w3.org/2000/svg">
<g filter="url(#filter0_d_301_621)">
<path d="M40 533C40.001 763.586 158.5 874 281.259 874H1120C1213.69 874 1356.71 768.5 1356.71 531.315C1356.71 343 1207 249.337 1135.83 240.827C1138.48 219.267 1156.84 182.134 1156.84 98.4194C1156.84 -36.6122 1016 36.0099 930.854 202.246C816.838 140.064 589.221 176.337 489.665 202.246C466.196 177.093 430.386 139.723 390.866 98.4194C254.068 -44.5552 195.52 67.2147 234.699 240.827C163.912 248.581 39.9992 359.388 40 533Z" fill="white"/>
</g>
<defs>
<filter id="filter0_d_301_621" x="0" y="0" width="1396.71" height="926" filterUnits="userSpaceOnUse" color-interpolation-filters="sRGB">
<feFlood flood-opacity="0" result="BackgroundImageFix"/>
<feColorMatrix in="SourceAlpha" type="matrix" values="0 0 0 0 0 0 0 0 0 0 0 0 0 0 0 0 0 0 127 0" result="hardAlpha"/>
<feOffset dy="12"/>
<feGaussianBlur stdDeviation="20"/>
<feComposite in2="hardAlpha" operator="out"/>
<feColorMatrix type="matrix" values="0 0 0 0 1 0 0 0 0 1 0 0 0 0 1 0 0 0 1 0"/>
<feBlend mode="normal" in2="BackgroundImageFix" result="effect1_dropShadow_301_621"/>
<feBlend mode="normal" in="SourceGraphic" in2="effect1_dropShadow_301_621" result="shape"/>
</filter>
</defs>
</svg>
