<svg width="387" height="453" viewBox="0 0 387 453" fill="none" xmlns="http://www.w3.org/2000/svg">
<path fill-rule="evenodd" clip-rule="evenodd" d="M202.376 3.28044C198.36 8.11377 201.867 18.9141 210.484 28.2483L218.375 36.7963L224.525 29.6937C230.743 22.5099 233.49 14.1356 232.326 5.91061C231.46 -0.205689 222.772 -1.3545 218.92 4.13827C216.195 8.02496 216.191 8.02496 212.766 4.24786C208.688 -0.252925 205.555 -0.545797 202.376 3.28044ZM229.708 12.5768C229.045 15.7889 226.385 21.6898 223.796 25.6899L219.086 32.9644L214.327 28.5241C208.215 22.8235 204.251 15.1673 204.251 9.06419C204.251 2.80806 208.864 2.75704 212.94 8.96971C216.375 14.2017 219.389 15.1484 219.389 10.9934C219.389 9.51011 220.757 6.92905 222.428 5.26063C227.013 0.682375 231.276 4.96776 229.708 12.5768ZM27.0019 15.4715C9.07473 26.3871 -1.67326 72.9122 0.368481 130.755C1.98257 176.502 9.2791 196.975 23.9705 196.975C32.2662 196.975 59.1645 178.754 80.8024 158.478C86.2786 153.348 91.0376 149.494 91.3801 149.915C91.7207 150.336 94.5856 167.17 97.7419 187.323L103.483 223.962L99.2178 230.241C92.0197 240.832 91.838 250.075 98.2074 281.921C101.373 297.747 103.962 311.467 103.962 312.41C103.962 313.353 101.498 314.124 98.4874 314.124C92.7747 314.124 90.0253 317.685 91.9232 322.626C92.7331 324.729 96.0805 325.461 104.908 325.461C113.735 325.461 117.083 326.192 117.892 328.295C118.49 329.854 120.311 331.129 121.938 331.129C123.565 331.129 125.386 329.854 125.984 328.295C126.748 326.309 129.848 325.461 136.332 325.461C143.302 325.461 145.591 326.162 145.591 328.295C145.591 331.943 152.42 332 153.819 328.363C154.674 326.133 156.006 325.99 160.678 327.615C164.311 328.881 180.607 329.383 204.372 328.964L242.27 328.295L247.3 338.687C251.455 347.275 252.329 351.706 252.335 364.195C252.339 377.119 251.538 380.915 246.817 390.369C236.268 411.487 218.876 421.861 187.8 425.572C164.033 428.41 161.299 429.149 155.007 434.435C145.29 442.598 148.942 453.019 161.369 452.59C170.3 452.282 200.968 441.619 220.755 431.943C252.454 416.442 269.239 394.336 269.365 367.925C269.424 355.738 268.688 353.206 260.387 337.013C255.414 327.31 251.752 318.968 252.248 318.471C252.746 317.976 255.734 319.476 258.89 321.804C264.536 325.974 265.257 326.022 304.925 324.888C327.088 324.253 348.382 322.817 352.242 321.695C373.061 315.65 386.11 280.708 386.121 230.978C386.127 206.046 382.42 172.738 378.49 162.414C375.945 155.731 368.909 152.356 363.522 155.234C356.941 158.752 356.579 168.343 362.025 195.008C367.409 221.374 368.673 253.605 365.074 272.77C362.271 287.691 354.021 302.993 346.456 307.301C338.381 311.902 337.958 311.193 334.981 288.073C326.841 224.841 314.989 190.28 284.615 141.214C268.631 115.392 258.617 95.4237 253.357 78.8811C251.045 71.6066 248.736 64.9253 248.225 64.0353C246.463 60.9536 244.047 67.5781 244.017 75.5745L243.988 83.6049H232.913C226.82 83.6049 216.744 84.1358 210.518 84.7858L199.199 85.9667L196.735 77.1787C195.38 72.3453 193.607 67.9825 192.797 67.4818C190.349 65.9702 187.221 84.714 187.221 100.907V116.133L175.829 105.602C155.526 86.8302 140.798 78.4598 120.784 74.3104C111.578 72.402 109.461 70.966 100.421 60.5039C88.8199 47.0752 72.0375 31.7627 56.0139 19.9836C43.438 10.7402 36.5351 9.66694 27.0019 15.4715ZM48.0002 18.4437C53.0507 23.8854 54.3185 28.9757 55.9704 50.4536L57.155 65.8398L46.0247 68.094C39.9033 69.3335 32.6692 70.8564 29.9501 71.4781C25.7549 72.4379 24.3585 71.5631 20.7234 65.6868C14.4431 55.542 12.1761 59.4741 12.2443 80.3927C12.2897 94.3448 13.1469 99.6335 16.587 107.186C20.6875 116.184 20.7253 116.711 17.4782 119.22C14.4014 121.595 14.5869 121.725 19.4348 120.601C24.1882 119.498 24.6518 119.789 23.5675 123.199C22.5873 126.283 22.9904 126.793 25.613 125.788C28.2451 124.779 28.6709 125.333 27.8061 128.633C27.2158 130.888 27.5053 132.732 28.4495 132.732C29.3918 132.732 30.1639 131.883 30.1639 130.846C30.1639 129.809 34.3098 131.934 39.3773 135.57C44.4466 139.205 49.6522 142.179 50.9465 142.179C55.5238 142.179 48.7912 171.574 41.506 183.389C36.6316 191.295 25.7057 196.247 19.4329 193.392C7.36792 187.903 2.65054 165.736 2.9041 115.726C3.17091 63.2134 11.1032 30.9672 26.79 18.6232C34.7602 12.3519 42.2856 12.2877 48.0002 18.4437ZM75.6593 38.7331C89.4122 50.7559 105.854 68.264 105.854 70.8867C105.854 72.4814 86.2692 68.5852 84.252 66.588C83.1242 65.4732 81.3077 60.98 80.2177 56.6039C79.1278 52.2298 77.4248 48.7947 76.4332 48.9723C75.4417 49.1499 73.417 53.1896 71.9335 57.9474C69.6117 65.3996 68.5331 66.5994 64.1695 66.5994C59.1191 66.5994 59.1002 66.5484 58.0368 49.1215C57.452 39.5097 56.0612 29.2818 54.9486 26.3947C53.1226 21.6596 53.2531 21.3232 56.2902 22.9463C58.1427 23.9345 66.8584 31.039 75.6593 38.7331ZM81.9813 68.0637C83.2699 69.3883 89.8058 71.3515 96.5081 72.4247C103.209 73.4979 109.427 75.104 110.325 75.9921C111.222 76.8801 112.723 81.6927 113.656 86.6847C116.899 104.023 108.229 130.999 96.1505 141.148C91.4842 145.068 88.4414 145.956 79.6898 145.947C64.7807 145.934 54.9562 143.009 55.7906 138.835C56.1502 137.038 56.9071 128.339 57.471 119.505C58.0349 110.672 58.5079 103.337 58.5212 103.205C58.5363 103.072 62.2792 103.384 66.8414 103.898C73.5494 104.652 75.9015 104.066 79.141 100.831C89.4179 90.5695 77.1371 81.6228 61.8591 88.2436C58.928 89.5133 58.5477 88.4609 58.5477 79.0833V68.4889H64.8716C70.66 68.4889 71.4036 67.8106 73.6724 60.4585L76.1494 52.4282L77.894 59.0414C78.8553 62.6787 80.6927 66.7392 81.9813 68.0637ZM19.7565 68.4889C21.592 72.0317 24.1692 74.1574 26.6292 74.1574C28.7939 74.1574 32.2775 76.3303 34.3685 78.985C39.962 86.0877 47.4685 84.7386 50.2539 76.13C54.2693 63.7255 56.8787 66.8941 56.6403 83.8864C56.3413 105.259 54.7953 116.063 52.1708 115.127C50.9938 114.708 50.235 112.333 50.481 109.85C50.8992 105.64 50.7516 105.565 48.3068 108.741C46.3105 111.333 45.4079 111.56 44.5261 109.686C43.8884 108.331 43.7238 109.136 44.1571 111.473C44.5904 113.81 44.1741 116.199 43.2318 116.781C42.2894 117.363 41.5174 118.77 41.5174 119.91C41.5174 121.049 43.0671 120.58 44.9613 118.869C47.8829 116.229 48.9293 116.14 51.8623 118.283C54.6572 120.322 55.1284 122.517 54.3185 129.697C53.7659 134.587 52.8331 139.067 52.2465 139.653C50.4148 141.484 38.5522 133.098 30.249 124.102C17.6939 110.502 11.9642 92.5611 14.1422 73.685C14.8329 67.7085 15.7184 62.8204 16.1101 62.8204C16.4999 62.8204 18.1424 65.3712 19.7565 68.4889ZM250.636 79.3535C252.358 85.33 258.394 99.3595 264.05 110.53C269.706 121.701 273.466 130.842 272.406 130.842C269.371 130.842 270.158 135.783 273.646 138.642C276.467 140.951 276.694 140.77 275.716 136.983C275.112 134.646 274.898 132.732 275.243 132.732C275.585 132.732 278.912 137.593 282.634 143.538C288.912 153.562 291.675 162.699 287.68 160.235C285.658 158.986 279.941 160.883 279.941 162.805C279.941 163.534 281.277 165.781 282.908 167.799C285.733 171.291 285.824 171.194 284.795 165.798L283.714 160.13L286.871 165.798C288.663 169.016 290.369 170.446 290.818 169.105C293.378 161.467 304.226 176.035 307.078 190.943C307.736 194.38 309.555 198.473 311.118 200.034C313.803 202.715 318.151 215.554 320.638 228.151C321.749 233.773 321.733 233.767 318.797 227.394C315.05 219.259 312.906 221 315.818 229.812C317.232 234.086 318.918 236.102 320.556 235.475C323.703 234.268 325.669 242.612 331.293 281.057C333.575 296.646 336.09 310.146 336.883 311.057C339.348 313.889 347.495 310.62 353.892 304.232C357.911 300.219 361.493 298.312 364.317 298.681C367.077 299.043 369.343 297.891 370.644 295.461C372.983 291.098 370.512 288.53 365.738 290.359C363.628 291.168 363.1 290.656 363.9 288.574C364.517 286.97 366.037 280.158 367.276 273.437C369.286 262.55 370.01 261.218 373.935 261.218C376.357 261.218 378.35 260.579 378.365 259.8C378.378 259.022 378.904 256.469 379.53 254.132C380.215 251.581 379.827 249.881 378.56 249.881C377.396 249.881 376.378 251.368 376.297 253.187C376.206 255.183 375.767 255.553 375.19 254.121C374.662 252.815 373.452 252.227 372.501 252.815C371.522 253.418 370.712 248.278 370.639 241.017C370.567 233.941 370.228 225.601 369.884 222.483C369.541 219.365 369.64 217.788 370.105 218.976C371.333 222.114 378.299 219.762 378.558 216.121C378.743 213.525 378.915 213.563 379.648 216.365C380.126 218.196 381.44 219.125 382.567 218.43C385.659 216.522 383.073 261.454 379.233 276.341C377.492 283.092 373.384 294.119 370.107 300.846C361.942 317.602 357.885 319.652 328.714 321.77C302.272 323.688 271.627 323.783 265.165 321.965C257.228 319.733 260.799 316.967 272.353 316.395C278.607 316.087 283.726 315.575 283.726 315.259C283.726 314.944 281.179 304.685 278.066 292.462C272.857 272.007 272.16 259.697 276.359 262.287C277.288 262.861 278.049 260.728 278.049 257.55C278.049 254.372 277.197 251.77 276.157 251.77C273.127 251.77 274.045 242.041 277.869 233.633C281.449 225.761 290.454 217.759 295.732 217.759C297.331 217.759 299.166 216.909 299.81 215.87C301.865 212.55 296.604 213.837 288.331 218.677C275.347 226.275 271.392 236.539 271.575 262.162C271.693 278.648 272.701 286.14 276.452 298.388L281.181 313.831L268.733 314.498C249.107 315.548 250.628 318.226 250.483 282.376C250.312 240.919 245.508 218.628 227.808 177.148C226.841 174.881 230.68 177.237 237.46 183.066C250.238 194.055 258.856 198.925 265.182 198.732C268.451 198.632 267.691 197.923 262.124 195.886C258.048 194.396 250.106 189.568 244.473 185.156C238.841 180.744 231.288 174.866 227.689 172.094C224.089 169.32 217.771 166.482 213.644 165.787C205.447 164.404 203.941 162.027 210.038 160.095C217.932 157.592 231.976 162.901 243.044 172.574C254.384 182.482 258.139 183.612 263.969 178.87C267.721 175.818 266.44 175.878 258.417 179.136C256.937 179.737 251.221 176.175 245.152 170.873C238.626 165.169 231.185 160.63 225.974 159.173C218.468 157.076 216.174 155.003 206.597 141.671C200.624 133.353 194.678 125.128 193.386 123.396C189.855 118.661 188.479 104.525 189.985 88.4684C191.376 73.6434 193.734 71.3439 195.874 82.7262C196.858 87.9715 197.98 89.2734 201.511 89.2734C203.937 89.2734 206.446 90.1236 207.089 91.1629C208.932 94.1407 211.822 93.366 210.613 90.2181C209.922 88.4231 210.637 87.3839 212.564 87.3839C214.236 87.3839 215.605 88.6593 215.605 90.2181C215.605 91.7769 216.456 93.0523 217.497 93.0523C218.538 93.0523 219.389 91.7769 219.389 90.2181C219.389 86.7943 224.36 86.424 225.711 89.7457C226.441 91.5483 227.119 91.4633 228.563 89.3943C230.061 87.2459 231.028 87.1571 233.216 88.971C235.418 90.7963 236.202 90.6754 237.085 88.3777C237.695 86.7906 239.922 85.4944 242.037 85.4944C245.332 85.4944 245.881 84.2794 245.881 76.9916C245.881 72.3151 246.246 68.4889 246.692 68.4889C247.139 68.4889 248.914 73.377 250.636 79.3535ZM131.92 79.8334C154.614 87.7674 183.062 112.418 204.177 142.442L213.913 156.284L209.082 157.892C201.801 160.315 202.785 166.047 210.74 167.538C214.306 168.205 218.861 170.214 220.857 171.999C228.79 179.091 244.34 224.701 244.511 241.378C244.635 253.446 240.766 268.332 236.243 273.178C230.334 279.512 228.086 289.006 230.55 297.222C232.37 303.283 239.886 312.024 245.338 314.415C246.157 314.774 251.393 324.195 256.973 335.348C266.183 353.75 267.114 356.768 267.049 367.936C266.955 384.284 260.616 398.07 247.162 411.187C237.611 420.498 209.922 436.941 203.793 436.941C202.298 436.941 200.126 434.864 198.968 432.325C196.932 427.864 197.225 427.605 207.651 424.614C227.596 418.892 239.638 408.929 249.852 389.703C253.643 382.567 254.371 378.469 254.382 364.195C254.394 348.856 253.839 346.171 248.719 336.798L243.042 326.405L207.869 327.095C171.738 327.804 159.995 326.753 161.242 322.927C161.636 321.723 165.725 319.818 170.331 318.694L178.706 316.652L179.832 299.799C180.45 290.531 181.582 279.376 182.346 275.009C183.68 267.393 184.068 267.024 191.906 265.849C208.013 263.438 217.798 253.125 218.191 238.149C218.293 234.209 218.551 230.986 218.761 230.986C218.971 230.986 221.327 231.815 223.997 232.828C226.744 233.871 228.85 233.937 228.85 232.979C228.85 230.462 218.074 228.567 211.15 229.865C207.822 230.489 202.033 233.521 198.287 236.605C186.354 246.427 180.023 265.017 178.024 296.102L176.813 314.925L171.137 316.085C168.014 316.723 163.471 318.313 161.04 319.616C158.61 320.92 156.379 321.706 156.084 321.362C155.787 321.018 156.265 315.21 157.147 308.455C159.236 292.428 159.369 230.863 157.327 225.349C156.423 222.908 156.101 234.823 156.578 253.131C157.319 281.579 154.952 318.596 151.883 326.587C148.825 334.545 147.466 325.918 147.317 297.59C147.226 280.183 146.511 261.69 145.726 256.494C144.942 251.298 144.719 263.706 145.232 284.069L146.163 321.092L141.619 322.305C139.12 322.974 134.826 323.531 132.077 323.545C126.525 323.575 126.754 325.071 122.835 263.107L121.459 241.378L121.7 263.493C121.832 275.822 121.219 284.885 120.313 283.977C115.724 279.372 104.951 224.673 95.3255 157.108C94.1636 148.94 94.5988 147.725 102.567 136.917C115.59 119.254 120.477 95.2725 114.301 79.3535C112.551 74.8451 118.078 74.9944 131.92 79.8334ZM233.469 99.6656C229.834 102.471 229.834 102.528 233.469 105.334C238.295 109.058 245.839 108.932 251.41 105.036C255.686 102.044 255.732 101.789 252.415 99.3671C247.794 95.9924 238.03 96.1473 233.469 99.6656ZM24.8107 100.61C25.3254 102.169 27.7361 103.445 30.1639 103.445C32.5916 103.445 35.0024 102.169 35.5171 100.61C36.3232 98.1804 36.0072 98.1464 33.3107 100.368C30.6426 102.568 29.6851 102.568 27.0171 100.368C24.3206 98.1464 24.0046 98.1804 24.8107 100.61ZM248.719 100.535C252.278 101.992 252.206 102.201 247.502 104.057C242.215 106.145 234.527 105.09 234.527 102.279C234.527 99.7223 239.761 100.297 240.843 102.972C241.413 104.384 241.858 104.002 241.947 102.027C242.109 98.4129 243.037 98.2088 248.719 100.535ZM197.997 102.71C195.297 104.278 195.049 105.259 196.809 107.377C201.392 112.89 220.288 108.537 216.729 102.787C215.056 100.083 202.605 100.032 197.997 102.71ZM204.52 106.279C205.536 106.279 205.841 105.429 205.197 104.389C204.533 103.318 206.124 102.5 208.87 102.5C215.08 102.5 215.158 105.844 208.985 107.392C202.972 108.898 197.878 107.042 199.748 104.023C200.843 102.252 201.329 102.25 201.916 104.01C202.334 105.259 203.506 106.279 204.52 106.279ZM80.3086 110.058C85.516 112.293 87.3685 112.293 85.9853 110.058C85.3419 109.019 82.9501 108.229 80.67 108.301C76.6735 108.429 76.6603 108.491 80.3086 110.058ZM225.675 109.642C224.449 110.421 223.597 112.747 223.783 114.81C223.974 116.93 223.092 118.355 221.754 118.088C220.454 117.827 219.389 118.517 219.389 119.619C219.389 122.753 233.144 120.894 234.215 117.616C234.974 115.296 234.625 115.207 232.296 117.126C228.58 120.187 226.742 118.188 228.145 112.612C229.35 107.809 229.077 107.481 225.675 109.642ZM75.5779 114.782C76.8741 116.34 78.7853 117.616 79.826 117.616C80.8819 117.616 80.6757 116.363 79.3624 114.782C78.0662 113.223 76.1551 111.947 75.1143 111.947C74.0584 111.947 74.2647 113.2 75.5779 114.782ZM70.3288 118.71C72.1265 120.582 74.0036 121.708 74.5012 121.212C74.9989 120.715 73.5286 119.182 71.2352 117.805C67.2482 115.415 67.2085 115.456 70.3288 118.71ZM259.126 135.033C259.126 139.572 261.174 144.069 263.24 144.069C264.245 144.069 264.483 142.166 263.772 139.817C262.048 134.119 259.126 131.111 259.126 135.033ZM264.803 135.336C264.803 136.766 266.08 138.995 267.642 140.29C270.65 142.784 271.335 140.934 269.331 135.721C267.918 132.044 264.803 131.778 264.803 135.336ZM77.0369 148.322L89.31 148.685L81.0257 155.973C70.2626 165.439 46.4789 183.663 45.7882 182.974C45.493 182.681 46.494 179.472 48.0116 175.844C49.5292 172.219 51.8037 163.657 53.0639 156.819C55.3062 144.666 55.4633 144.428 60.0596 146.174C62.6463 147.154 70.2853 148.122 77.0369 148.322ZM374.153 159.657C375.227 160.957 376.673 165.42 377.364 169.577C378.263 174.972 378.07 176.339 376.69 174.356C374.088 170.611 372.552 172.527 373.931 177.796C374.559 180.196 376.096 181.672 377.432 181.16C382.18 179.342 384.057 204.761 379.51 209.302C378.073 210.736 376.37 211.384 375.725 210.742C375.082 210.097 374.486 211.626 374.404 214.137C374.308 217.081 373.863 217.697 373.152 215.87C372.544 214.311 371.023 212.185 369.77 211.146C368.517 210.107 366.447 203.73 365.168 196.975C363.891 190.22 362.572 183.75 362.239 182.598C361.861 181.296 363.796 180.753 367.344 181.167C371.908 181.698 372.826 181.233 371.912 178.856C371.284 177.22 370.769 175.1 370.769 174.146C370.769 173.192 369.918 172.411 368.877 172.411C367.836 172.411 366.985 173.687 366.985 175.245C366.985 177.443 366.128 177.224 363.172 174.272C359.643 170.748 359.421 164.419 362.627 158.712C363.914 156.422 372.028 157.087 374.153 159.657ZM122.884 179.969C122.884 182.048 123.736 183.748 124.776 183.748C125.817 183.748 126.669 182.048 126.669 179.969C126.669 177.891 125.817 176.19 124.776 176.19C123.736 176.19 122.884 177.891 122.884 179.969ZM130.453 186.36C130.453 187.918 131.305 189.719 132.345 190.361C133.386 191.004 134.238 190.254 134.238 188.695C134.238 187.136 133.386 185.335 132.345 184.693C131.305 184.051 130.453 184.801 130.453 186.36ZM119.399 191.306C119.399 193.904 119.828 194.968 120.352 193.668C120.878 192.37 120.878 190.244 120.352 188.944C119.828 187.646 119.399 188.708 119.399 191.306ZM302.035 190.834C300.794 192.941 304.13 200.754 306.274 200.754C307.456 200.754 307.413 198.704 306.149 195.085C304.083 189.164 303.422 188.481 302.035 190.834ZM126.669 196.975C126.669 199.053 127.52 200.754 128.561 200.754C129.602 200.754 130.453 199.053 130.453 196.975C130.453 194.896 129.602 193.196 128.561 193.196C127.52 193.196 126.669 194.896 126.669 196.975ZM292.827 194.184C292.211 194.8 292.123 196.895 292.632 198.842C293.942 203.841 301.091 203.066 300.36 198.003C299.827 194.299 295.108 191.907 292.827 194.184ZM120.992 206.311C120.992 208.45 121.843 210.201 122.884 210.201C123.925 210.201 124.776 208.977 124.776 207.478C124.776 205.98 123.925 204.23 122.884 203.588C121.843 202.946 120.992 204.172 120.992 206.311ZM139.915 206.311C139.915 207.289 140.757 208.608 141.786 209.243C142.857 209.905 143.175 209.147 142.53 207.465C141.271 204.193 139.915 203.594 139.915 206.311ZM132.374 213.396C132.391 214.237 133.229 216.2 134.238 217.759C135.818 220.202 136.075 220.151 136.102 217.398C136.117 215.641 135.278 213.678 134.238 213.035C133.197 212.393 132.359 212.555 132.374 213.396ZM119.1 228.04C119.1 229.659 119.951 230.986 120.992 230.986C122.033 230.986 122.884 230.186 122.884 229.208C122.884 228.229 122.033 226.904 120.992 226.262C119.951 225.619 119.1 226.421 119.1 228.04ZM308.724 230.513C311.491 237.011 313.612 239.562 315.056 238.12C316.554 236.626 310.603 225.317 308.317 225.317C307.273 225.317 307.445 227.505 308.724 230.513ZM130.752 230.986C130.752 233.584 131.182 234.648 131.706 233.348C132.232 232.049 132.232 229.924 131.706 228.624C131.182 227.326 130.752 228.388 130.752 230.986ZM301.933 232.403C303.401 238.517 304.124 239.589 305.714 238.001C307.434 236.286 304.794 227.207 302.576 227.207C301.471 227.207 301.202 229.368 301.933 232.403ZM105.871 241.601C108.819 259.995 115.315 312.808 115.315 318.375C115.315 323.414 114.999 323.571 104.908 323.571C95.7626 323.571 94.5005 323.114 94.5005 319.792C94.5005 316.852 95.7626 316.013 100.177 316.013C107.379 316.013 107.445 313.848 101.123 284.653C95.6623 259.428 95.0795 242.78 99.3711 234.494C101.008 231.333 102.741 229.136 103.22 229.616C103.699 230.094 104.893 235.486 105.871 241.601ZM295.079 233.708C295.079 236.246 295.931 238.846 296.971 239.488C298.075 240.171 298.864 238.249 298.864 234.876C298.864 231.698 298.012 229.096 296.971 229.096C295.931 229.096 295.079 231.171 295.079 233.708ZM136.13 234.653C136.13 236.792 136.982 238.544 138.022 238.544C139.063 238.544 139.915 237.319 139.915 235.821C139.915 234.323 139.063 232.573 138.022 231.93C136.982 231.288 136.13 232.514 136.13 234.653ZM290.038 233.947C289.412 235.575 289.864 237.871 291.043 239.048C292.64 240.643 293.187 239.887 293.187 236.087C293.187 230.402 291.77 229.44 290.038 233.947ZM130.453 254.604C130.453 256.163 131.305 257.439 132.345 257.439C133.386 257.439 134.238 256.163 134.238 254.604C134.238 253.046 133.386 251.77 132.345 251.77C131.305 251.77 130.453 253.046 130.453 254.604ZM279.941 256.382C279.941 258.92 280.793 261.52 281.833 262.162C282.937 262.844 283.726 260.923 283.726 257.55C283.726 254.372 282.874 251.77 281.833 251.77C280.793 251.77 279.941 253.845 279.941 256.382ZM287.51 257.216C287.51 260.333 288.362 263.409 289.402 264.052C290.504 264.732 291.295 262.848 291.295 259.551C291.295 256.433 290.443 253.357 289.402 252.715C288.301 252.035 287.51 253.919 287.51 257.216ZM293.215 257.911C293.268 262.247 296.29 265.138 299.488 263.914C301.225 263.247 302.648 261.518 302.648 260.071C302.648 256.798 299.515 256.607 298.224 259.8C297.655 261.212 297.21 260.83 297.121 258.856C296.952 255.139 293.17 254.225 293.215 257.911ZM294.682 281.139C293.14 282.679 295.189 289.56 297.193 289.56C298.111 289.56 298.85 288.498 298.835 287.198C298.794 283.914 295.995 279.827 294.682 281.139ZM283.324 283.034C282.647 283.708 282.575 285.666 283.164 287.383C283.939 289.645 283.4 289.464 281.201 286.726C278.916 283.878 278.162 283.646 278.138 285.781C278.121 287.34 278.732 289.549 279.496 290.692C281.09 293.071 287.51 293.473 287.51 291.195C287.51 290.361 288.725 290.144 290.21 290.713C292.182 291.468 292.632 290.688 291.881 287.82C290.763 283.544 287.592 282.442 287.378 286.253C287.304 287.553 286.638 287.083 285.898 285.21C285.158 283.338 284 282.357 283.324 283.034ZM301.5 284.991C302.132 286.635 302.648 288.385 302.648 288.882C302.648 289.377 303.462 289.28 304.457 288.666C306.654 287.31 304.89 282.002 302.243 282.002C301.202 282.002 300.868 283.347 301.5 284.991Z" fill="#00A199"/>
</svg>
