<svg width="523" height="371" viewBox="0 0 523 371" fill="none" xmlns="http://www.w3.org/2000/svg">
<path fill-rule="evenodd" clip-rule="evenodd" d="M413.928 26.0947C411.431 29.8874 405.905 41.8091 401.645 52.5874C395.183 68.9376 392.735 73.4539 386.868 79.8526C383 84.0705 378.894 89.3175 377.742 91.5108C374.609 97.4772 375.11 106.783 378.933 113.671C382.159 119.48 382.179 119.748 380.001 127.874L377.783 136.157L370.898 137.764C367.11 138.65 357.832 141.714 350.278 144.574C334.097 150.704 331.754 150.527 334.736 143.402C337.503 136.785 337.314 133.366 333.992 130.049C328.417 124.482 320.029 128.436 320.029 136.635C320.029 140.501 318.337 140.563 310.448 136.989C305.059 134.546 303.297 134.398 295.13 135.701C290.055 136.511 285.822 137.296 285.725 137.446C285.627 137.596 284.468 144.62 283.149 153.056C281.828 161.492 280.451 169.434 280.089 170.707C279.728 171.979 274.436 175.614 268.33 178.786C262.224 181.958 256.616 185.698 255.867 187.095C252.991 192.462 259.256 267.23 263.417 277.204C264.661 280.186 267.738 282.797 273.836 286.041L282.488 290.647L277.483 296.45C274.729 299.64 271.796 303.821 270.964 305.738C270.131 307.655 268.577 310.889 267.512 312.924C264.835 318.039 265.087 321.42 268.407 324.978C272.425 329.287 277.452 330.214 281.705 327.431C287.861 323.403 288.925 316.724 284.28 311.279C282.726 309.459 283.552 308.31 289.983 303.341L297.504 297.529L314.7 304.688C336.491 313.758 341.708 313.987 360.311 306.68C367.492 303.861 373.757 301.555 374.233 301.555C374.711 301.555 371.339 305.477 366.742 310.269C350.225 327.491 348.76 329.389 348.417 334C348.234 336.478 347.658 340.276 347.139 342.44C344.52 353.351 358.76 359.893 366.047 351.125C368.923 347.665 368.38 341.012 364.92 337.335L361.875 334.098L368.569 328.46C372.251 325.359 383.098 314.227 392.675 303.72C409.353 285.423 410.667 284.325 423.855 277.66L437.621 270.701L453.016 280.899C461.483 286.508 469.105 291.542 469.955 292.084C471.061 292.793 471.008 293.564 469.767 294.803C464.938 299.625 470.948 311.315 478.253 311.315C483.696 311.315 488.976 306.25 488.976 301.028C488.976 293.385 481.129 284.961 459.915 269.825L451.099 263.535L460.861 258.153C476.758 249.386 477.313 247.839 480.567 203.253C481.414 191.638 482.956 180.477 484.032 178.155C485.099 175.854 485.937 170.481 485.896 166.215C485.854 161.948 486.737 156.712 487.855 154.58C488.975 152.448 496.716 145.585 505.06 139.33C513.402 133.075 520.868 126.897 521.649 125.6C523.569 122.408 519.599 118.098 513.689 116.958C511.231 116.484 502.161 114.47 493.532 112.483L477.843 108.87L476.347 103.076C475.523 99.8895 472.255 88.1839 469.084 77.0639C463.725 58.2792 463.338 55.761 463.62 41.5441L463.922 26.2439L459.17 30.8439L454.418 35.4438L446.913 33.2087C442.785 31.9803 434.887 30.5887 429.359 30.116L419.309 29.2585L418.887 24.2291L418.465 19.1982L413.928 26.0947ZM423.41 31.0502C428.659 31.0502 428.837 31.2008 428.076 35.0046C427.231 39.2198 430.212 43.5994 433.923 43.5994C436.033 43.5994 439.87 40.0996 442.205 36.0448C443.486 33.818 444.096 33.7846 449.492 35.6405C455.199 37.6037 455.445 37.5647 457.549 34.3576C461.41 28.4735 462.373 30.6417 462.119 44.6452C461.914 55.9785 462.53 60.4432 465.818 71.4865C477.34 110.184 480.705 132.312 478.08 152.104C476.788 161.835 475.85 164.721 473.301 166.81C469.679 169.776 449.277 180.246 447.119 180.246C446.335 180.246 445.683 178.834 445.671 177.109C445.635 171.813 443.93 170.647 428.854 165.597C420.836 162.911 413.334 160.308 412.182 159.812C411.03 159.315 409.302 158.746 408.34 158.546C404.535 157.755 382.027 150.559 379.919 149.46C378.054 148.488 377.868 147.046 378.816 140.913C379.443 136.855 380.705 130.825 381.618 127.51C383.154 121.937 383.551 121.56 386.91 122.478C388.907 123.025 392.739 123.938 395.427 124.508C398.115 125.078 399.152 125.618 397.732 125.706C396.312 125.794 393.014 126.879 390.402 128.117C384.307 131.004 383.958 135.358 389.729 136.511C393.478 137.26 393.745 137.706 393.038 142.053C392.527 145.191 392.823 146.782 393.918 146.782C396.949 146.782 403.706 142.601 405.209 139.796C406.47 137.442 408.141 137.021 416.23 137.021C428.545 137.021 438.835 135.029 447.685 130.931C455.173 127.463 468.032 116.951 468.032 114.297C468.032 113.433 465.049 115.586 461.4 119.083C452.53 127.586 446.561 130.944 435.824 133.471C426.749 135.607 410.081 136.339 406.014 134.78C400.652 132.726 404.257 130.497 415.331 129.016C430.709 126.962 441.381 122.774 448.719 115.913C452.527 112.352 453.026 111.617 450.063 113.929C447.475 115.95 443.391 118.593 440.987 119.805L436.617 122.009L440.849 117.315C448.76 108.537 450.145 106.534 451.976 101.218C454.705 93.2872 452.88 91.0074 443.802 91.0074C439.744 91.0074 433.327 91.8984 429.54 92.9874C425.752 94.075 420.004 94.8712 416.765 94.7541C409.521 94.4947 406.357 96.9432 409.666 100.248C411.737 102.316 411.621 102.925 408.21 107.854C403.694 114.378 398.474 115.092 393.27 109.894C389.024 105.655 388.876 100.38 392.899 96.6392C394.578 95.0762 395.413 93.7961 394.753 93.7961C392.062 93.7961 388.446 98.6555 388.446 102.271C388.446 104.395 390.011 107.989 391.925 110.261C394.957 113.858 395.135 114.611 393.322 116.116C392.175 117.065 391.238 118.706 391.238 119.762C391.238 122.474 389.422 122.154 384.975 118.66C380.107 114.837 377.276 108.131 377.276 100.426C377.276 93.7083 378.82 90.9949 389.052 79.7383C394.968 73.2294 397.242 69.0073 402.949 53.9427C406.702 44.0359 411.414 33.1069 413.421 29.6559C416.963 23.564 417.082 23.4928 417.51 27.2158C417.908 30.6696 418.495 31.0502 423.41 31.0502ZM409.596 46.2306C406.77 48.0195 413.087 51.9655 418.777 51.9655C424.102 51.9655 424.634 50.231 420.248 47.1648C416.826 44.7707 412.503 44.3914 409.596 46.2306ZM419.944 48.4504C422.489 50.3885 422.376 50.4861 418.059 50.0664C415.53 49.821 412.735 48.8924 411.846 48.0042C409.358 45.5194 416.62 45.921 419.944 48.4504ZM438.711 48.831C435.683 50.3411 433.824 52.2821 433.824 53.933C433.824 56.8151 440.705 60.0361 447.267 60.2257C455.433 60.4613 456.241 50.6911 448.285 47.9219C445.861 47.0783 443.816 46.3895 443.739 46.3909C443.661 46.3909 441.399 47.4897 438.711 48.831ZM447.727 53.2637C448.169 53.9776 447.771 55.0303 446.844 55.602C445.917 56.1737 444.934 55.9701 444.661 55.1489C444.387 54.3276 442.936 53.9762 441.437 54.368C439.936 54.7598 438.711 54.3806 438.711 53.523C438.711 51.6476 446.587 51.4203 447.727 53.2637ZM425.98 55.7456C425.888 56.3508 425.888 57.3157 425.98 57.8915C426.071 58.4674 425.339 58.9373 424.355 58.9373C421.749 58.9373 421.539 65.8366 424.115 66.8238C425.287 67.2741 427.482 66.5268 428.989 65.1645C431.738 62.6811 432.643 60.188 430.683 60.4962C428.178 60.8922 426.952 60.2187 428.433 59.265C429.587 58.5218 429.49 57.7451 428.084 56.4428C427.017 55.4528 426.071 55.1391 425.98 55.7456ZM406.597 60.3317C404.736 61.5336 404.736 61.6828 406.597 61.6828C407.749 61.6828 409.634 61.0749 410.786 60.3317C412.647 59.1297 412.647 58.9805 410.786 58.9805C409.634 58.9805 407.749 59.5885 406.597 60.3317ZM408.609 63.7729C407.119 64.8996 406.607 65.8407 407.474 65.8645C408.34 65.8896 409.83 64.9679 410.786 63.8175C412.993 61.1613 412.091 61.1432 408.609 63.7729ZM427.541 63.1204C427.541 63.8873 426.913 64.5147 426.145 64.5147C425.377 64.5147 424.749 63.8873 424.749 63.1204C424.749 62.3535 425.377 61.726 426.145 61.726C426.913 61.726 427.541 62.3535 427.541 63.1204ZM445.431 64.0727C446.438 64.4757 447.643 64.4255 448.106 63.9626C448.57 63.4996 447.746 63.1706 446.275 63.2305C444.648 63.2974 444.317 63.6279 445.431 64.0727ZM410.786 67.3857C410.786 68.1972 411.414 68.4747 412.182 68.0006C412.95 67.5265 413.578 66.8628 413.578 66.524C413.578 66.1852 412.95 65.9091 412.182 65.9091C411.414 65.9091 410.786 66.5742 410.786 67.3857ZM442.9 66.4571C442.9 66.7582 443.874 67.3787 445.067 67.8361C446.31 68.3115 446.869 68.0773 446.381 67.2881C445.561 65.9621 442.9 65.3276 442.9 66.4571ZM440.135 69.4284C441.107 70.5969 442.189 71.2662 442.541 70.9162C443.509 69.9485 441.541 67.3034 439.855 67.3034C438.928 67.3034 439.034 68.1038 440.135 69.4284ZM449.069 93.2482C456.444 96.0745 442.936 116.545 428.922 123.782C426.631 124.966 419.923 126.545 414.014 127.294C404.327 128.521 401.097 129.998 401.033 133.23C401.022 133.829 401.943 134.677 403.081 135.112C406.048 136.25 403.411 140.614 398.101 143.357L393.876 145.539L394.781 140.722C395.632 136.184 395.43 135.848 391.294 134.942C385.363 133.641 386.569 131.204 394.458 128.553C398.048 127.347 401.409 125.935 401.93 125.416C402.449 124.897 404.309 124.472 406.062 124.472C417.523 124.472 431.075 118.261 429.359 113.797C428.654 111.965 426.649 111.697 417.554 112.223C411.527 112.571 406.597 112.648 406.597 112.394C406.597 110.573 417.88 100.055 422.188 97.8607C430.898 93.4238 443.766 91.2152 449.069 93.2482ZM416.987 98.6318C413.467 101.291 410.786 101.31 410.786 98.6764C410.786 97.2541 412.212 96.5848 415.241 96.5848C419.459 96.5848 419.553 96.6936 416.987 98.6318ZM440.805 99.3736C441.28 100.14 441.945 100.768 442.284 100.768C442.623 100.768 442.9 100.14 442.9 99.3736C442.9 98.6067 442.234 97.9792 441.421 97.9792C440.609 97.9792 440.331 98.6067 440.805 99.3736ZM433.387 104.602C433.643 105.945 435.31 107.25 437.091 107.503L440.331 107.963L437.427 105.063C433.881 101.522 432.776 101.395 433.387 104.602ZM405.311 105.764C405.378 107.388 405.709 107.719 406.155 106.607C406.558 105.601 406.508 104.397 406.044 103.934C405.581 103.472 405.251 104.294 405.311 105.764ZM492.513 121.898C497.479 122.811 501.543 124.002 501.543 124.544C501.543 125.085 496.83 129.07 491.071 133.4L480.599 141.271V136.551C480.599 133.956 480.184 128.817 479.679 125.13C478.865 119.203 479.032 118.531 481.121 119.331C482.419 119.829 487.547 120.985 492.513 121.898ZM517.485 119.741C518.7 120.207 519.681 121.931 519.667 123.575C519.648 125.731 515.495 129.67 504.757 137.718C487.528 150.633 484.74 153.923 483.772 162.495C483.112 168.352 482.911 168.612 480.733 166.436C478.708 164.415 478.58 162.719 479.753 153.539L481.104 142.968L497.245 130.931C514.195 118.289 513.992 118.402 517.485 119.741ZM333.464 132.204C335.441 135.217 335.542 136.586 334.139 141.267C333.228 144.3 332.216 146.782 331.889 146.782C331.562 146.782 329.074 145.725 326.36 144.432C322.339 142.516 321.426 141.312 321.426 137.919C321.426 129.45 329.226 125.746 333.464 132.204ZM303.274 143.993C303.274 147.827 302.802 150.958 302.227 150.949C301.652 150.941 298.432 148.31 295.073 145.103C289.661 139.935 289.263 139.153 291.582 138.244C293.022 137.679 296.24 137.173 298.736 137.119C303.265 137.021 303.274 137.036 303.274 143.993ZM331.898 150.252C348.256 160.477 347.911 160.063 341.754 162.093C334.292 164.551 324.743 163.26 315.066 158.484L306.765 154.386L306.349 145.691L305.933 136.997L314.028 140.57C318.481 142.536 326.522 146.893 331.898 150.252ZM409.5 142.017C409.567 143.641 409.898 143.972 410.343 142.861C410.747 141.854 410.697 140.651 410.233 140.188C409.769 139.725 409.44 140.547 409.5 142.017ZM296.831 154.404C288.949 165.642 304.76 176.656 314.235 166.527C317.695 162.828 318.258 162.676 322.823 164.21L327.709 165.852L328.09 191.175C328.298 205.103 328.107 216.499 327.661 216.499C326.187 216.499 291.525 202.231 284.679 198.806C278.669 195.8 278.029 195.039 278.676 191.678C279.074 189.608 281.093 177.441 283.163 164.638L286.924 141.362L292.844 146.504C298.246 151.197 298.595 151.889 296.831 154.404ZM430.444 146.2C430.511 147.825 430.842 148.155 431.287 147.044C431.691 146.037 431.64 144.834 431.177 144.371C430.713 143.908 430.384 144.73 430.444 146.2ZM404.736 149.106C404.224 149.616 403.805 150.683 403.805 151.476C403.805 152.349 404.455 152.267 405.456 151.267C406.365 150.359 406.784 149.293 406.388 148.897C405.991 148.501 405.247 148.594 404.736 149.106ZM391.229 154.901C401.583 158.376 403.087 159.308 404.035 162.849C404.626 165.055 404.862 167.106 404.56 167.408C404.257 167.709 398.153 166.156 390.993 163.957C378.315 160.063 377.963 159.841 377.537 155.461C377.295 152.988 377.639 150.965 378.298 150.965C378.957 150.965 384.777 152.737 391.229 154.901ZM307.985 157.358C311.537 159.342 314.444 161.835 314.444 162.9C314.444 164.965 307.579 169.091 304.141 169.091C300.677 169.091 297.689 164.956 297.689 160.16C297.689 152.625 298.91 152.292 307.985 157.358ZM443.509 175.171C444.228 177.166 444.439 179.175 443.976 179.637C442.637 180.972 406.599 169.006 406.578 167.219C406.568 166.332 406.195 164.25 405.75 162.594C404.976 159.711 405.754 159.841 423.571 165.563C439.842 170.788 442.368 172.004 443.509 175.171ZM355.612 193.303C359.686 210.455 360.472 215.668 359.111 216.508C358.144 217.104 353.736 218.358 349.316 219.295C343.068 220.62 340.155 220.629 336.238 219.338L331.199 217.677V191.989V166.303L335.039 166.24C337.152 166.205 340.764 165.365 343.068 164.373C347.113 162.631 347.309 162.716 348.808 166.876C349.659 169.245 352.721 181.137 355.612 193.303ZM391.932 165.778C398.077 167.79 403.615 169.899 404.238 170.463C405.272 171.402 409.429 195.584 408.555 195.584C408.347 195.584 406.593 194.983 404.658 194.248C401.479 193.041 400.497 193.644 394.444 200.527C388.481 207.308 386.448 208.582 375.88 212.166C362.548 216.685 359.362 215.688 366.102 209.108C368.995 206.283 370.394 203.286 370.995 198.625C371.459 195.036 373.062 185.823 374.557 178.155C376.053 170.486 377.277 163.74 377.276 163.165C377.276 161.422 380.247 161.952 391.932 165.778ZM480.599 173.444C480.599 175.652 479.416 178.638 477.97 180.083C474.385 183.662 440.546 202.623 422.936 210.918C393.579 224.747 351.966 236.897 338.224 235.653C324.19 234.382 263.744 207.444 259.123 200.403C256.299 196.097 256.012 189.627 258.515 186.617C260.081 184.732 260.973 185.051 265.905 189.268C268.991 191.906 276.354 196.577 282.269 199.65C298.988 208.337 332.441 221.069 340.36 221.762C348.942 222.51 367.65 217.694 390.666 208.811C406.183 202.822 464.654 174.815 472.919 169.413C477.936 166.134 480.599 167.532 480.599 173.444ZM412.203 174.483C412.221 176.311 412.464 176.384 413.439 174.847C414.43 173.283 417.291 173.817 429.124 177.771L443.598 182.607L433.333 187.791C422.513 193.253 419.809 193.545 424.633 188.728C426.233 187.131 427.534 185.352 427.526 184.778C427.517 184.203 424.758 186.713 421.395 190.355C418.03 193.999 414.603 196.978 413.78 196.978C411.406 196.978 409.816 192.76 408.784 183.732C408.257 179.131 407.524 174.32 407.156 173.041C406.642 171.268 407.158 170.893 409.332 171.462C410.9 171.87 412.192 173.23 412.203 174.483ZM479.175 192.447C479.123 210.048 475.237 241.655 472.563 246.228C469.443 251.564 464.028 254.77 424.05 274.96C378.796 297.815 344.196 312.205 341.339 309.359C340.754 308.776 340.071 292.77 339.821 273.792L339.366 239.286L351.063 236.991C365.909 234.078 383.742 228.922 400.86 222.591C415.223 217.28 453.113 198.321 468.032 188.983C473.024 185.858 477.58 183.241 478.155 183.167C478.731 183.095 479.19 187.269 479.175 192.447ZM288.678 219.639C307.973 228.456 331.306 237.415 334.978 237.416C337.322 237.417 337.485 239.749 337.515 273.669C337.541 302.659 337.181 309.921 335.718 309.921C328.968 309.921 268.646 282.242 265.929 277.898C263.887 274.633 260.376 249.432 259.317 230.443C258.869 222.39 258.186 212.815 257.8 209.164L257.097 202.526L264.478 207.241C268.537 209.833 279.428 215.413 288.678 219.639Z" fill="#00A199"/>
<path fill-rule="evenodd" clip-rule="evenodd" d="M47.2816 1.93617C46.2925 3.02886 45.4828 4.79171 45.4828 5.85399C45.4828 7.27361 44.9784 7.57339 43.5806 6.98577C37.2743 4.33769 33.5265 5.67368 33.5265 10.5701C33.5265 15.8706 42.2883 24.0289 50.6631 26.5271C52.7859 27.1592 53.4228 26.6107 55.2586 22.5669C58.6977 14.9952 57.9021 3.55565 53.7435 0.780485C51.6946 -0.585917 49.1544 -0.131897 47.2816 1.93617ZM54.1402 4.22256C55.7782 7.28121 55.5162 16.7961 53.6739 21.2026L52.0837 25.0075L46.7512 22.3073C40.4807 19.1324 35.7004 13.8884 35.7004 10.1845C35.7004 6.6067 39.8927 6.63386 43.2774 10.2345C46.2675 13.4159 47.6566 12.9173 47.6566 8.6639C47.6566 6.95536 47.9534 4.78519 48.3164 3.84023C49.2327 1.455 52.7826 1.68852 54.1402 4.22256ZM99.6903 20.2131C97.211 23.2034 97.9805 32.3381 101.248 38.703C102.836 41.7975 104.62 44.6281 105.212 44.993C108.191 46.8341 117.52 38.8095 120.721 31.6527C122.662 27.3156 122.688 26.7725 121.08 24.321C118.93 21.0408 115.436 20.9289 112.127 24.0343C109.991 26.0404 109.612 26.1219 109.612 24.5774C109.612 22.1346 105.755 18.4145 103.223 18.4145C102.101 18.4145 100.511 19.2236 99.6903 20.2131ZM107.213 25.4452C107.986 27.8022 108.822 29.9344 109.071 30.1831C109.319 30.4318 110.809 29.1078 112.381 27.2407C115.502 23.5336 118.77 22.8265 119.845 25.6255C120.967 28.5473 116.199 36.8185 111.382 40.3051L106.918 43.5365L105.014 41.186C103.164 38.9018 99.8294 29.3239 99.8294 26.2924C99.8294 23.5032 102.137 20.4532 103.978 20.8073C104.997 21.0039 106.43 23.0589 107.213 25.4452ZM82.8363 49.0032C78.8223 50.072 76.4636 53.299 74.7626 60.0495L73.5267 64.9557L70.1018 62.8692C65.4171 60.0148 61.1618 60.2146 57.9336 63.4416C56.4662 64.908 55.2652 66.6056 55.2652 67.2161C55.2652 67.8732 53.9108 68.0535 51.9381 67.6592C46.8567 66.6436 41.7068 72.1864 38.6688 81.9423C35.4917 92.1447 35.4602 113.881 38.6057 125.569L40.697 133.339L37.6253 135.152C31.9428 138.506 17.5845 153.587 13.815 160.16C2.69892 179.547 -0.699918 192.144 0.115281 210.937C0.783745 226.339 3.26304 235.96 11.915 256.726C24.7626 287.556 30.4527 304.265 31.0027 312.766C31.5059 320.56 31.3418 321.29 27.2223 329.602C24.8539 334.381 21.2681 340.434 19.254 343.055C11.0477 353.729 10.6694 355.127 15.9867 355.127C20.2627 355.127 28.3027 349.654 33.2928 343.344C39.247 335.818 48.1751 318.048 50.85 308.401C53.3891 299.246 55.4239 296.664 60.7846 295.795C64.2204 295.238 65.1052 295.723 71.0463 301.43C74.6213 304.866 82.1939 311.39 87.8731 315.93C99.3946 325.141 103.09 330.636 103.09 338.556C103.09 345.086 100.911 349.658 93.2795 359.138C86.6232 367.406 86.121 368.792 89.1014 370.67C93.5132 373.451 112.018 358.064 118.199 346.477C128.86 326.487 133.184 299.325 128.836 279.65C127.915 275.475 127.281 271.937 127.43 271.789C127.579 271.641 132.532 272.743 138.436 274.24C165.371 281.068 183.762 279.915 202.068 270.254C225.177 258.056 232.341 237.083 225.392 201.977C222.106 185.38 221.907 174.939 224.757 168.666C227.334 162.996 234.154 156.313 241.862 151.906C249.419 147.585 252 144.782 252 140.895C252 136.977 247.62 132.759 242.568 131.812C232.195 129.866 217.555 135.281 208.373 144.457C204.393 148.432 202.76 151.186 201 156.877C197.626 167.794 198.075 174.165 203.81 196.709C210.185 221.771 210.677 231.63 206.031 241.201C200.634 252.321 188.209 261.788 174.031 265.585C164.328 268.184 146.021 267.798 134.173 264.746L124.496 262.252L117.837 249.222C114.174 242.055 109.366 233.589 107.152 230.408C102.572 223.825 98.7425 212.631 98.7425 205.827C98.7425 191.408 107.361 183.5 129.417 177.68C140.379 174.787 147.325 171.739 155.449 166.262C160.584 162.798 166.141 160.421 173.54 158.525C179.23 157.066 179.03 155.541 172.725 152.326L168.014 149.924L167.888 137.663C167.784 127.54 167.351 124.51 165.398 120.287L163.033 115.173L169.474 114.445C173.017 114.044 175.915 113.355 175.915 112.913C175.915 111.491 163.539 106.692 154.652 104.668C149.462 103.487 141.694 102.699 135.155 102.693C124.606 102.681 119.91 103.611 96.6882 110.321C94.1817 111.045 94.1176 110.922 94.8708 106.832C97.1056 94.6864 104.866 81.1299 116.405 69.2135C121.038 64.4289 124.829 59.8573 124.829 59.0535C124.829 58.2508 123.97 57.1331 122.92 56.5716C118.59 54.2559 107.238 61.0075 96.6458 72.1994C92.3991 76.6875 91.0187 77.6596 91.5285 75.8055C96.8871 56.3055 93.5904 46.1389 82.8363 49.0032ZM90.8785 54.2581C92.6024 57.5448 91.9513 64.4159 88.7938 76.253C86.2797 85.6788 86.5688 85.518 76.6951 82.9612C62.6454 79.3236 55.2413 73.6125 57.3586 68.0481C59.4401 62.577 66.866 61.6136 71.0811 66.2678C74.2202 69.7327 75.5593 68.7573 76.881 62.047C78.4266 54.1929 81.3385 50.7497 86.046 51.2092C88.3742 51.4373 89.9057 52.4029 90.8785 54.2581ZM122.655 58.9079C122.655 59.6737 119.687 63.2179 116.059 66.7827C104.361 78.2809 96.2001 92.4424 93.1904 106.47C92.1035 111.535 91.9676 111.669 86.6569 112.942C83.6743 113.657 81.02 114.029 80.7592 113.767C80.0483 113.057 83.2113 101.427 86.4112 92.9854C90.3003 82.7233 96.9903 73.1998 104.721 66.9206C113.916 59.4499 122.655 55.5463 122.655 58.9079ZM50.5098 77.7715C46.8349 92.2664 47.3903 108.74 52.0054 122.147C54.9 130.554 71.6105 155.592 73.2398 153.964C73.643 153.562 71.7822 150.387 69.104 146.911C61.8433 137.481 55.2271 126.635 56.1641 125.699C59.9825 121.883 117.547 105.498 130.508 104.537C135.129 104.195 142.707 104.502 147.356 105.219C156.224 106.588 168.993 110.299 169.904 111.773C170.199 112.248 168.002 112.96 165.025 113.354C162.047 113.75 159.611 114.346 159.611 114.682C159.611 115.017 160.623 116.711 161.858 118.446L164.106 121.601L161.587 121.616C157.924 121.638 154.176 122.792 154.176 123.9C154.176 124.427 156.565 124.859 159.484 124.859C163.878 124.859 164.89 125.233 165.361 127.031C165.865 128.962 165.393 129.204 161.139 129.204C158.505 129.204 156.35 129.693 156.35 130.29C156.35 130.887 158.551 131.376 161.241 131.376C165.301 131.376 166.132 131.723 166.132 133.415C166.132 135.189 165.496 135.382 161.241 134.903C158.151 134.555 156.35 134.779 156.35 135.513C156.35 136.152 158.551 137.004 161.241 137.407C164.419 137.883 166.132 138.685 166.132 139.695C166.132 141.084 162.955 141.072 157.437 139.661C157.138 139.585 156.744 140.011 156.563 140.609C156.381 141.206 158.338 142.215 160.911 142.85C165.291 143.931 165.568 144.221 165.258 147.39C164.955 150.488 165.366 150.972 170.15 153.133C175.903 155.732 176.113 155.436 166.02 158.995C163.269 159.966 158.134 162.531 154.608 164.693C144.493 170.901 140.903 172.444 128.058 176.11C112.277 180.615 103.509 185.673 100.165 192.202C96.136 200.069 95.8545 208.494 99.2751 218.813C100.912 223.748 103.927 229.848 106.255 232.933C112.606 241.349 122.341 262.135 125.585 274.207C131.256 295.31 128.649 319.874 118.455 341.416C112.444 354.117 100.276 366.645 91.9122 368.742C87.6101 369.822 88.1775 368.208 95.0491 359.833C98.399 355.752 101.92 350.945 102.875 349.153C104.721 345.688 105.3 334.923 103.906 329.96C102.889 326.336 95.4741 318.862 85.3167 311.223C76.4527 304.557 67.3345 295.331 61.2966 286.924C59.026 283.762 56.8966 281.448 56.563 281.781C56.2293 282.114 57.5412 284.632 59.477 287.377C61.4129 290.122 62.8476 292.495 62.6639 292.651C62.4802 292.806 60.0314 293.937 57.2227 295.162C52.4207 297.256 52.0098 297.768 50.3577 303.72C46.3099 318.302 37.4938 335.612 29.8712 343.946C24.6756 349.628 16.7867 354.571 14.8378 353.367C14.3704 353.079 16.5019 349.568 19.5746 345.567C22.6474 341.565 27.0832 334.381 29.432 329.602C33.4515 321.421 33.6711 320.467 33.1754 313.308C32.583 304.759 27.3962 289.425 14.8258 259.058C4.76409 234.752 1.86633 223.426 1.74894 207.951C1.63807 193.408 4.07389 183.468 11.4618 168.306C15.8465 159.308 17.9171 156.562 27.6419 146.854C33.7743 140.731 39.4427 135.728 40.2361 135.737C41.0296 135.746 42.8448 138.8 44.2697 142.526C46.9816 149.612 54.6804 162.353 57.7955 164.908C60.7433 167.327 59.9368 165.588 54.1652 157.089C44.4567 142.79 39.1177 125.994 38.2231 106.937C37.3329 87.9836 41.9002 72.2331 49.0664 69.5448C52.2489 68.35 52.5141 69.8652 50.5098 77.7715ZM56.5749 75.4742C59.5759 79.2867 67.8877 83.2696 77.8418 85.6668C82.4624 86.7791 86.133 88.1096 85.9993 88.6234C85.8645 89.1382 84.5417 92.8193 83.058 96.8055C81.5755 100.792 80.0374 106.493 79.6418 109.477L78.9223 114.9L68.9953 118.338C63.5367 120.228 58.0368 122.436 56.7738 123.244C54.6282 124.617 54.4011 124.452 53.3 120.713C50.8055 112.243 49.5685 101.36 50.1403 92.9127C50.7055 84.5481 52.9293 72.7229 53.9369 72.7229C54.1967 72.7229 55.3836 73.9612 56.5749 75.4742ZM135.336 109.291C133.252 111.373 135.678 121.327 137.93 119.935C138.57 119.54 138.508 118.443 137.766 117.057C137.106 115.825 136.848 113.412 137.192 111.693C137.782 108.746 136.954 107.674 135.336 109.291ZM121.851 127.215C122.005 130.546 122.665 133.013 123.473 133.28C124.35 133.571 124.738 132.827 124.56 131.196C124.335 129.12 124.778 128.68 127.003 128.766C128.497 128.825 130.698 129.274 131.894 129.765C134.056 130.654 134.056 130.645 131.937 128.236C130.252 126.319 130.106 125.628 131.239 124.929C132.113 124.388 132.249 123.785 131.59 123.378C130.996 123.01 129.906 123.438 129.167 124.328C127.78 125.997 124.646 126.487 123.389 125.231C122.995 124.837 123.219 123.86 123.884 123.058C124.813 121.942 124.685 121.601 123.342 121.601C121.921 121.601 121.639 122.666 121.851 127.215ZM138.597 133.187C137.089 134.693 137.957 141.013 140.01 143.475C142.582 146.561 142.74 145.921 140.646 140.913C139.781 138.842 139.349 136.094 139.686 134.806C140.307 132.436 139.921 131.863 138.597 133.187ZM245.361 134.922C246.791 135.66 248.607 137.246 249.396 138.446C251.748 142.024 249.084 145.399 239.064 151.529C234.001 154.628 228.592 158.931 226.884 161.22C222.989 166.442 222.653 166.762 222.653 165.266C222.653 164.59 224.109 162.38 225.889 160.354C229.107 156.691 229.287 154.88 226.322 156.017C224.405 156.752 219.392 165.122 219.392 167.587C219.392 169.417 221.005 170.07 221.841 168.577C222.091 168.13 222.06 168.496 221.771 169.392C220.144 174.446 220.506 185.261 222.718 197.632C226.024 216.132 226.602 231.271 224.34 240.138C221.055 253.016 211.944 263.213 197.351 270.347C190.917 273.493 179.446 276.47 178.274 275.299C177.973 274.997 178.542 274.751 179.537 274.751C180.534 274.751 181.349 274.262 181.349 273.664C181.349 273.067 180.86 272.578 180.262 272.578C179.665 272.578 179.175 271.793 179.175 270.833C179.175 269.687 178.584 269.314 177.456 269.747C176.51 270.109 174.798 270.406 173.652 270.406C171.044 270.406 170.873 272.539 173.469 272.687C174.7 272.756 174.411 273.078 172.654 273.597C171.159 274.039 170.058 274.968 170.208 275.662C171.1 279.797 129.77 272.046 126.188 267.406C123.828 264.349 124.633 264.221 132.709 266.373C142.783 269.056 162.828 270.032 171.858 268.28C181.402 266.429 194.6 259.165 200.878 252.309C206.603 246.057 210.247 237.511 211.223 228.045C211.89 221.579 210.289 213.037 204.203 190.572C201.211 179.531 200.742 176.191 201.134 168.732C201.937 153.417 208.656 143.653 223.196 136.679C230.392 133.227 240.521 132.424 245.361 134.922ZM210.399 148.483C208.187 150.926 204.175 160.261 204.175 162.965C204.175 164.11 204.664 165.047 205.262 165.047C205.86 165.047 206.349 164.437 206.35 163.69C206.351 161.341 212.724 148.755 213.912 148.755C214.534 148.755 215.044 148.266 215.044 147.669C215.044 145.929 212.273 146.414 210.399 148.483ZM216.904 150.267C213.86 153.085 210.051 159.924 209.451 163.646C208.78 167.805 211.165 166.017 213.106 160.906C214.133 158.202 216.5 154.418 218.364 152.496C222.302 148.435 221.009 146.464 216.904 150.267ZM221.312 154.077C216.727 158.1 212.917 166.615 214.842 168.538C216.159 169.855 216.443 169.362 217.734 163.517C218.119 161.779 220.134 158.657 222.214 156.58C227.159 151.638 226.422 149.593 221.312 154.077ZM87.1612 169.982C86.2808 172.274 87.7503 173.512 89.0025 171.533C90.3329 169.43 90.3068 168.306 88.9264 168.306C88.309 168.306 87.5155 169.06 87.1612 169.982ZM91.2079 172.546C88.5753 176.241 88.4416 176.995 90.4155 176.995C91.6557 176.995 92.6013 175.67 95.2654 170.207C96.3621 167.958 93.1622 169.804 91.2079 172.546ZM95.0002 176.151C93.3056 178.568 92.7437 181.34 93.9491 181.34C95.0165 181.34 98.6675 176.547 98.7066 175.094C98.7631 172.96 96.8556 173.504 95.0002 176.151ZM97.9175 180.239C97.1751 181.426 96.5686 182.892 96.5686 183.497C96.5686 185.6 98.2849 184.58 100.2 181.34C101.645 178.897 101.768 178.081 100.696 178.081C99.9087 178.081 98.6588 179.052 97.9175 180.239ZM99.7848 185.748C98.4838 187.573 97.7186 189.368 98.0849 189.734C98.9957 190.645 104.177 185.654 104.177 183.866C104.177 181.44 102.273 182.256 99.7848 185.748ZM68.5888 195.744C68.0105 196.483 67.0019 198.678 66.3486 200.619C64.5704 205.904 67.3084 205.214 69.5811 199.805C71.3452 195.608 70.7148 193.026 68.5888 195.744ZM72.0865 203.145C71.2724 205.709 71.9637 206.878 73.6702 205.823C75.0962 204.943 75.2158 200.891 73.8158 200.891C73.2582 200.891 72.48 201.905 72.0865 203.145ZM77.5255 202.249C76.4006 205.326 76.5462 208.829 77.819 209.279C78.6723 209.583 79.1777 208.75 79.1777 207.044C79.1777 205.55 79.4744 203.554 79.8375 202.609C80.2005 201.662 79.9418 200.891 79.2603 200.891C78.5788 200.891 77.7995 201.502 77.5255 202.249ZM82.9906 202.18C81.9341 205.079 81.9287 210.56 82.9819 210.879C84.308 211.282 85.683 202.096 84.4134 201.311C83.9167 201.004 83.2765 201.395 82.9906 202.18ZM88.5677 203.817C87.5047 204.879 87.7416 211.753 88.8416 211.753C89.3731 211.753 90.0122 210.013 90.2611 207.885C90.7003 204.127 89.9829 202.403 88.5677 203.817ZM92.9154 204.903C91.8654 205.953 92.0828 210.667 93.1806 210.667C94.386 210.667 95.4708 205.357 94.4002 204.696C93.9665 204.428 93.298 204.521 92.9154 204.903ZM212.87 214.947C212.87 220.059 213.323 223.701 213.957 223.701C214.584 223.701 215.044 220.282 215.044 215.618C215.044 211.173 214.555 207.234 213.957 206.865C213.267 206.439 212.87 209.388 212.87 214.947ZM220.479 215.554C220.479 224.804 221.787 227.76 223.06 221.392C224.383 214.785 223.472 206.322 221.439 206.322C220.912 206.322 220.479 210.476 220.479 215.554ZM217.218 215.618C217.218 220.816 217.617 223.582 218.305 223.157C218.903 222.788 219.392 219.094 219.392 214.947C219.392 210.645 218.926 207.408 218.305 207.408C217.677 207.408 217.218 210.869 217.218 215.618ZM97.6555 225.665C97.6555 227.25 100.722 230.774 101.459 230.037C102.375 229.122 100.1 224.787 98.7044 224.787C98.1273 224.787 97.6555 225.182 97.6555 225.665ZM93.3078 227.925C93.3078 229.544 97.4197 234.068 98.1925 233.299C99.0522 232.443 95.6588 226.959 94.2697 226.959C93.7404 226.959 93.3078 227.394 93.3078 227.925ZM88.9644 228.86C88.972 230.45 93.2937 236.735 94.3784 236.735C95.973 236.735 95.761 235.812 93.2187 231.703C91.1426 228.346 88.9546 226.884 88.9644 228.86ZM84.6123 232.339C84.6123 234.602 87.2199 238.907 88.5916 238.907C90.41 238.907 90.409 238.88 88.3373 234.73C86.7101 231.469 84.6123 230.123 84.6123 232.339ZM79.1777 235.441C79.1777 237.842 81.9885 241.891 82.9732 240.907C83.6732 240.207 80.7016 233.476 79.6929 233.476C79.4092 233.476 79.1777 234.36 79.1777 235.441ZM73.743 237.227C73.743 239.472 76.0941 244.338 77.1788 244.338C78.544 244.338 78.2853 242.434 76.4321 238.853C74.6093 235.331 73.743 234.807 73.743 237.227ZM110.699 246.764C110.699 247.688 111.661 249.596 112.837 251.006C114.918 253.503 114.975 253.51 115.011 251.295C115.03 250.043 114.068 248.134 112.873 247.053C111.038 245.394 110.699 245.349 110.699 246.764ZM203.835 251.729C200.522 255.185 200.244 256.55 202.477 258.401C203.738 259.447 204.837 258.967 208.179 255.907C210.456 253.821 211.952 251.748 211.504 251.299C211.055 250.852 209.467 251.63 207.975 253.031C206.483 254.432 205.262 255.064 205.262 254.436C205.262 253.807 205.996 252.685 206.892 251.941C208.654 250.479 209.066 248.682 207.639 248.682C207.153 248.682 205.441 250.053 203.835 251.729ZM209.948 256.718C205.101 260.304 204.242 261.716 206.909 261.716C209.025 261.716 216.801 254.637 215.491 253.903C214.946 253.597 212.452 254.865 209.948 256.718ZM108.525 255.031C108.525 256.381 112.78 259.998 113.511 259.268C114.544 258.236 111.829 254.113 110.117 254.113C109.241 254.113 108.525 254.526 108.525 255.031ZM106.404 260.63C106.375 263.049 108.09 265.301 109.582 264.803C110.473 264.507 110.177 263.51 108.657 261.684C107.128 259.847 106.417 259.515 106.404 260.63ZM103.09 264.131C103.09 266.216 105.935 268.699 106.772 267.345C107.11 266.799 106.419 265.477 105.238 264.409C103.429 262.773 103.09 262.729 103.09 264.131ZM99.8294 268.644C99.8294 270.423 102.468 272.838 103.398 271.909C104.163 271.144 101.861 267.147 100.654 267.147C100.201 267.147 99.8294 267.821 99.8294 268.644ZM94.0893 271.108C93.7306 271.688 94.6132 273.599 96.0512 275.357C97.924 277.647 98.6751 278.048 98.7033 276.772C98.7544 274.439 94.9317 269.745 94.0893 271.108ZM90.6394 274.671C89.834 275.975 92.8296 280.181 94.5632 280.181C95.9882 280.181 95.6175 278.792 93.4393 275.961C92.0404 274.143 91.2046 273.758 90.6394 274.671ZM85.6993 278.798C85.6993 279.33 86.3927 280.715 87.2405 281.873C89.0601 284.36 91.0307 283.068 89.3872 280.466C88.1036 278.432 85.6993 277.344 85.6993 278.798ZM81.6005 281.472C82.2722 283.485 84.6123 283.819 84.6123 281.901C84.6123 280.955 83.8374 280.181 82.8917 280.181C81.945 280.181 81.3635 280.761 81.6005 281.472ZM99.8642 301.09C99.9142 303.069 102.941 306.761 103.805 305.896C104.678 305.024 102.04 299.732 100.733 299.732C100.236 299.732 99.8446 300.344 99.8642 301.09ZM95.1752 301.487C94.3697 302.292 97.6718 308.422 98.9131 308.422C99.3468 308.422 99.9283 308.055 100.205 307.607C100.904 306.476 96.0697 300.594 95.1752 301.487ZM90.047 306.249C90.047 306.847 91.1166 308.404 92.4252 309.712C95.3773 312.662 96.6403 310.415 93.7948 307.273C91.7198 304.982 90.047 304.525 90.047 306.249ZM87.8731 310.462C87.8731 311.85 91.0687 314.279 91.8589 313.491C92.648 312.701 90.2166 309.508 88.8275 309.508C88.3025 309.508 87.8731 309.937 87.8731 310.462ZM110.515 318.743C109.676 319.581 111.964 325.8 113.111 325.8C114.448 325.8 114.102 322.065 112.572 319.973C111.807 318.929 110.882 318.375 110.515 318.743ZM106.753 322.814C107.113 324.158 107.415 325.623 107.423 326.072C107.439 326.927 110.699 327.248 110.699 326.395C110.699 326.124 110.131 324.658 109.437 323.136C107.878 319.717 105.858 319.475 106.753 322.814ZM102.43 324.26C102.793 325.205 103.09 326.183 103.09 326.433C103.09 326.682 103.824 326.887 104.721 326.887C106.686 326.887 106.822 325.619 105.047 323.845C103.189 321.989 101.652 322.232 102.43 324.26Z" fill="#00A199"/>
</svg>
