<svg width="800" height="745" viewBox="0 0 800 745" fill="none" xmlns="http://www.w3.org/2000/svg">
<path fill-rule="evenodd" clip-rule="evenodd" d="M3.74933 9.54627C-4.2431 21.7408 -0.0500344 37.9353 22.0773 80.3833C33.5098 102.316 39.4649 120.917 46.54 156.79C51.681 182.872 57.9763 209.359 60.522 215.647C66.5153 230.432 87.3584 253.4 104.261 263.837L117.562 272.054L104.077 285.888C83.8877 306.602 73.8733 332.523 71.8742 369.244C66.5803 466.411 113.277 594.263 184.949 678.838C210.112 708.534 235.476 721.875 235.461 705.409C235.457 702.907 223.52 683.316 208.934 661.876C184.502 625.968 174.384 604.158 174.331 587.287C174.304 579.054 193.951 538.494 197.964 538.494C199.589 538.494 201.959 543.223 203.235 549C216.189 607.791 241.665 672.286 261.013 695.27C282.166 720.392 282.594 705.737 262.527 643.89C244.726 589.033 237.926 556.255 244.902 558.933C247.463 559.914 259.186 561.92 270.951 563.387L292.348 566.061L306.265 610.217C322.954 663.186 351.697 730.104 361.608 739.07C369.593 746.294 376.898 743.899 376.879 734.062C376.871 730.509 370.904 708.209 363.615 684.504C352.527 648.447 334.845 570.325 334.845 557.401C334.845 555.406 339.63 553.775 345.478 553.775C351.326 553.775 365.056 551.456 375.984 548.622C393.708 544.029 396.051 544.133 397.691 549.577C403.046 567.364 407.468 627.665 407.468 682.93C407.468 749.431 410.01 756.8 423.465 729.305C434.764 706.215 439.025 658.247 441.433 527.033L443.78 399.051L461.309 368.488C470.949 351.678 480.57 333.661 482.684 328.454L486.529 318.98L491.337 327.958C508.488 359.991 516.156 541.405 505.082 653.223C501.447 689.929 499.066 724.984 499.792 731.128C501.39 744.61 508.672 748.021 514.122 737.844C520.891 725.202 533.574 662.048 540.664 605.701C546.401 560.075 548.42 551.915 553.897 552.182C557.452 552.358 568.299 552.789 578.004 553.137L595.652 553.775L592.988 579.563C591.524 593.748 587.021 620.375 582.989 638.736C574.706 676.428 573.918 687.488 579.529 687.488C590.113 687.488 607.337 642.805 619.117 584.777C622.266 569.259 626.869 554.646 629.345 552.304C634.364 547.552 632.319 607.294 624.697 688.168C620.611 731.479 621.498 744.793 628.462 744.793C633.405 744.793 643.614 719.602 649.913 691.87C652.944 678.517 658.391 640.383 662.018 607.126C668.222 550.237 669.124 546.528 677.201 544.499C681.921 543.315 688.205 541.42 691.16 540.285C695.659 538.559 696.018 543.082 693.369 567.968C691.626 584.327 687.655 612.322 684.539 630.182C677.369 671.305 677.235 687.488 684.062 687.488C690.139 687.488 705.298 654.9 716.853 616.994C745.138 524.198 753.371 451.6 742.291 392.69C736.255 360.622 736.297 359.185 743.628 346.765C757.45 323.35 762.426 302.51 766.44 251.211C770.224 202.814 771.164 198.918 786.186 169.478C803.745 135.06 804.399 124.589 789.091 122.812C773.958 121.055 753.578 140.928 743.575 167.193C736.538 185.665 735.151 198.111 734.34 250.057C733.442 307.672 728.523 338.299 721.505 329.952C719.892 328.034 708.903 314.43 697.08 299.721C640.063 228.774 544.395 147.56 498.963 131.542C476.74 123.702 475.567 124.222 483.651 138.311C497.308 162.116 497.017 166.078 480.027 187.56C471.351 198.528 460.725 214.501 456.413 223.051C452.101 231.601 448.023 239.215 447.354 239.967C446.681 240.724 440.872 237.595 434.446 233.022C421.34 223.696 420.12 216.01 428.541 195.861C431.721 188.255 433.873 181.604 433.319 181.088C428.87 176.928 392.302 201.882 365.125 227.624C326.447 264.261 318.925 266.633 258.693 261.182C238.561 259.356 201.683 257.77 176.747 257.652L131.403 257.438L114.715 235.371C93.8257 207.754 86.4142 183.227 86.3302 141.436C86.2461 100.387 78.3798 62.5919 64.6883 37.4501C45.6226 2.43276 17.0051 -10.6711 3.74933 9.54627ZM35.6426 9.44312C40.1988 12.6331 47.8243 20.7972 52.5907 27.5898C58.3738 35.838 59.081 38.1951 54.7121 34.6957C47.0407 28.5411 46.7005 29.9814 52.4149 44.4643C56.2142 54.0955 56.9443 54.4546 59.3829 47.8797C61.6457 41.7863 63.2167 43.3106 68.6444 56.8728C77.3401 78.5916 81.1815 106.793 75.4481 106.793C68.9769 106.793 70.1962 124.73 76.8394 127.278C79.9928 128.485 82.5728 134.01 82.5728 139.557C82.5728 146.945 81.0439 149.047 76.8394 147.434C72.6616 145.834 70.9874 148.053 70.6625 155.621C70.3644 162.597 69.6267 163.721 68.4189 159.044C67.2531 154.544 64.4742 152.898 60.564 154.395C48.0001 159.216 43.0693 132.715 55.316 126.163C59.2415 124.061 63.5416 123.431 64.8717 124.757C66.1981 126.082 67.2836 120.864 67.2836 113.162C67.2836 99.4431 59.9333 92.6696 59.3371 105.838C59.1574 109.831 58.2592 110.602 57.1087 107.749C56.0461 105.124 53.4201 102.973 51.2682 102.973C49.1162 102.973 48.3097 105.464 49.4793 108.509C50.9012 112.211 49.7698 113.342 46.066 111.92C43.0197 110.751 40.5275 109.334 40.5275 108.769C40.5275 108.207 36.1969 97.9531 30.8991 85.9878C25.6053 74.0224 23.0252 65.312 25.1657 66.6377C29.913 69.5679 30.2035 61.0294 25.6053 53.7745C23.7705 50.8787 20.4451 49.6371 18.2129 51.0162C12.5827 54.4928 6.00067 40.8159 5.38146 24.354C4.63229 4.44991 18.6448 -2.45729 35.6426 9.44312ZM22.1766 37.0719C31.2011 55.5892 34.6029 60.9492 37.3206 60.9492C41.808 60.9492 41.3722 58.3819 34.6947 45.4767C31.4878 39.2801 27.0463 34.2067 24.8217 34.2067C22.5971 34.2067 21.4084 35.4941 22.1766 37.0719ZM36.7052 37.2973C36.7052 38.9974 39.2318 43.7232 42.3164 47.8033C48.046 55.3753 50.0298 51.1347 45.852 40.2505C43.4554 34.008 36.7052 31.8266 36.7052 37.2973ZM433.487 57.083L424.229 68.907L417.166 61.1058C413.282 56.8194 406.341 53.3085 401.735 53.3085C392.217 53.3085 380.712 64.2882 380.712 73.373C380.712 82.0872 397.852 101.25 418.094 115.171L435.486 127.129L444.61 116.008C463.091 93.4642 472.99 73.1017 471.748 60.1775C470.647 48.7126 469.283 47.4748 456.639 46.4165C444.95 45.4423 441.273 47.1348 433.487 57.083ZM464.363 52.957C467.991 55.253 468.816 59.6617 466.989 66.9395C464.027 78.7406 438.949 118.255 434.427 118.255C430.265 118.255 402.951 97.8232 394.74 88.5665C386.381 79.1455 387.577 65.2624 397.251 59.4287C403.08 55.9139 406.016 57.3313 415.06 68.0321L425.888 80.8418L430.547 71.8525C441.277 51.15 452.025 45.1444 464.363 52.957ZM516.404 144.134C550.082 161.191 589.521 192.908 633.577 238.359C716.754 324.168 728.729 342.143 737.956 395.032C746.17 442.121 745.31 474.854 734.436 528.461C723.989 579.964 697.623 666.124 688.694 677.937C683.102 685.333 682.915 685.23 682.796 674.663C682.582 655.641 694.974 594.13 700.249 588.017C703.036 584.789 707.97 575.796 711.215 568.037C716.593 555.17 716.551 552.614 710.703 539.128L704.293 524.336L691.037 533.325C683.748 538.268 674.88 542.314 671.333 542.314C665.837 542.314 663.914 551.151 658.307 602.152C650.896 669.578 643.71 707.518 634.376 728.549C625.431 748.694 623.578 737.282 628.707 693.711C634.987 640.39 638.27 535.369 633.439 542.314C630.377 546.711 621.185 548.045 593.951 548.045C574.423 548.045 553.763 546.734 548.041 545.134C539.567 542.761 538.05 543.311 539.881 548.083C541.119 551.307 540.916 566.898 539.433 582.733C536.773 611.081 536.578 611.505 526.568 610.347L516.404 609.17L513.958 504.111C511.351 392.17 505.254 340.248 492.553 321.742C488.562 315.935 483.295 304.306 480.845 295.901C476.862 282.243 470.533 270.656 456.65 251.604C454.166 248.192 453.306 241.148 454.697 235.608C456.929 226.714 458.546 225.931 470.636 227.891C494.372 231.742 507.811 210.906 491.869 194.971C484.641 187.747 484.641 187.548 491.869 181.008C500.671 173.05 501.088 164.546 493.57 146.56C488.035 133.314 488.085 133.131 496.436 135.706C501.111 137.146 510.097 140.94 516.404 144.134ZM70.3912 168.943C73.9382 167.636 77.8026 165.149 78.976 163.419C80.1533 161.688 82.8022 170.467 84.8662 182.929C86.9264 195.388 87.2551 204.744 85.5925 203.716C83.9336 202.692 82.4352 204.102 82.2709 206.852C82.0377 210.692 81.5217 210.745 80.0425 207.085C78.892 204.235 74.611 203.196 69.4126 204.499C62.0624 206.344 60.3423 204.854 58.3586 194.941C57.0666 188.484 57.1775 177.611 58.6108 170.784C60.1359 163.507 61.7757 161.046 62.5746 164.844C63.4766 169.107 66.1408 170.506 70.3912 168.943ZM765.339 186.123C768.34 188.079 768.684 195.877 766.474 211.853C764.731 224.46 761.616 252.578 759.552 274.339C756.72 304.218 753.272 319.068 745.467 335.006C736.706 352.908 734.562 355.086 731.359 349.363C728.783 344.767 729.081 338.212 732.288 328.81C734.879 321.215 737.78 287.496 738.74 253.877C739.699 220.258 741.182 190.604 742.038 187.976C743.728 182.78 758.417 181.615 765.339 186.123ZM424.638 193.707C423.121 197.386 420.46 206.321 418.725 213.565C416.084 224.617 416.833 227.62 423.377 232.2C429.451 236.453 430.058 238.359 426.125 240.789C423.342 242.504 422.268 245.109 423.732 246.573C425.196 248.036 429.019 247.062 432.222 244.403C439.044 238.741 440.161 244.506 433.525 251.138C431.037 253.625 430.203 256.865 431.675 258.336C433.147 259.806 436.388 258.974 438.876 256.486C445.512 249.854 451.28 250.97 445.615 257.789C439.335 265.35 443.769 269.781 451.333 263.504C458.156 257.843 459.272 263.608 452.637 270.24C446.532 276.341 451.761 280.952 458.469 275.386C464.952 270.01 469.317 274.618 475.716 293.605C483.009 315.247 480.948 324.065 459.07 364.832L438.047 404.006L438.043 502.77C438.039 631.454 430.066 718.471 416.661 736.128C412.307 741.863 411.486 732.491 411.203 674.116C411.023 636.295 408.65 590.737 405.928 572.877C402.354 549.424 402.148 539.625 405.183 537.596C412.476 532.721 402.561 534.631 380.712 542.314C357.92 550.325 334.845 552.251 334.845 546.134C334.845 544.033 333.362 542.314 331.554 542.314C327.858 542.314 327.915 542.788 338.854 602.863C343.193 626.713 352.668 665.104 359.908 688.179C375.155 736.793 376.229 744.499 366.665 736.663C356.529 728.362 329.559 667.198 311.888 612.429L295.678 562.203L267.672 558.043C252.268 555.75 230.121 549.198 218.456 543.479C198.006 533.455 197.234 532.526 197.07 517.642C196.974 509.15 194.387 497.043 191.313 490.739C185.221 478.231 185.202 477.02 191.654 512.607C193.722 524.015 191.879 531.862 182.358 552.194C175.829 566.142 170.486 582.302 170.486 588.109C170.486 606.458 180.745 628.769 206.576 666.579C220.363 686.762 231.643 704.924 231.643 706.941C231.643 713.856 210.375 699.61 193.114 681.134C155.227 640.585 122.963 583.956 102.013 521.226C66.8135 415.849 66.6568 335.549 101.566 293.38C121.174 269.693 171.934 250.32 180.042 263.428C183.252 268.616 196.263 268.276 198.037 262.958C199.012 260.036 204.909 259.608 216.51 261.61C225.882 263.229 231.406 265.304 228.776 266.221C220.355 269.155 223.665 274.889 233.779 274.889C239.624 274.889 242.563 273.277 241.087 270.885C239.429 268.207 247.245 267.26 264.748 268.02C283.16 268.822 290.605 270.572 289.933 273.934C289.34 276.895 293.285 278.709 300.326 278.709C308.842 278.709 311.124 277.281 309.472 272.979C308.066 269.315 309.541 267.248 313.566 267.248C325.916 267.248 349.698 251.871 363.627 234.886C375.331 220.609 418.76 187.021 425.514 187.021C426.549 187.021 426.156 190.028 424.638 193.707ZM536.762 197.347C530.566 204.438 522.137 219.261 522.137 223.062C522.137 224.25 527.064 225.225 533.088 225.225C547.758 225.225 564.94 211.456 563.434 200.908C561.905 190.169 545.003 187.911 536.762 197.347ZM83.5284 216.369C87.2055 216.338 90.2174 214.478 90.2174 212.239C90.2174 210 94.7545 215.016 100.297 223.383C105.843 231.75 115.586 244.128 121.95 250.89C132.117 261.69 132.721 263.493 126.904 265.724C112.28 271.332 74.7983 240.643 72.654 221.301C71.8436 214.004 72.4552 209.92 74.0109 212.231C75.5665 214.539 79.8513 216.403 83.5284 216.369ZM564.466 222.974C558.404 230.275 564.985 233.805 576.254 229.293C584.254 226.092 584.391 225.675 577.561 225.408C571.204 225.16 570.883 224.483 575.65 221.404C580.638 218.184 580.577 217.695 575.16 217.641C571.739 217.611 566.927 220.01 564.466 222.974ZM569.033 239.333C572.752 240.303 577.912 240.238 580.5 239.192C583.088 238.145 580.045 237.354 573.739 237.431C567.432 237.507 565.314 238.363 569.033 239.333ZM522.898 246.55C518.789 251.104 518.953 252.452 523.854 254.332C527.114 255.581 529.782 259.1 529.782 262.152C529.782 265.204 528.062 266.637 525.96 265.338C523.857 264.039 522.137 264.8 522.137 267.023C522.137 269.246 524.718 271.069 527.871 271.069C531.024 271.069 533.604 268.49 533.604 265.338C533.604 262.186 535.974 259.608 538.872 259.608C541.765 259.608 546.275 257.029 548.894 253.877C551.894 250.263 552.15 248.147 549.585 248.147C547.353 248.147 544.314 250.099 542.839 252.487C541.031 255.413 538.153 254.255 534.013 248.934C528.712 242.122 527.191 241.793 522.898 246.55ZM488.83 266.293C479.534 275.733 482.225 277.85 493.264 269.781C497.109 266.97 499.59 263.103 498.776 261.186C497.958 259.268 493.486 261.568 488.83 266.293ZM170.486 274.889C170.486 276.99 174.029 278.709 178.356 278.709C182.683 278.709 185.163 276.99 183.864 274.889C182.564 272.788 179.025 271.069 175.994 271.069C172.963 271.069 170.486 272.788 170.486 274.889ZM384.649 275.229C384.588 278.572 388.915 283.298 394.27 285.735C406.146 291.145 407.468 291.206 407.468 286.35C407.468 284.249 404.112 282.53 400.015 282.53C395.914 282.53 390.807 279.523 388.663 275.844C385.349 270.152 384.749 270.064 384.649 275.229ZM220.176 282.53C220.176 284.631 225.439 286.35 231.868 286.35C238.691 286.35 242.578 284.757 241.198 282.53C239.899 280.429 234.639 278.709 229.506 278.709C224.373 278.709 220.176 280.429 220.176 282.53ZM497.067 284.753C491.104 289.605 490.917 290.4 496.096 288.784C500.11 287.534 503.194 289.223 504.253 293.246C505.239 296.978 506.149 295.271 506.405 289.215C506.925 276.929 506.768 276.853 497.067 284.753ZM164.752 286.35C166.052 288.451 170.555 290.171 174.759 290.171C178.964 290.171 181.341 288.451 180.042 286.35C178.742 284.249 174.239 282.53 170.035 282.53C165.83 282.53 163.453 284.249 164.752 286.35ZM281.333 287.045C281.333 291.932 300.689 295.275 304.855 291.11C307.446 288.52 304.217 286.736 295.02 285.663C287.494 284.784 281.333 285.407 281.333 287.045ZM511.275 293.991C511.275 299.244 512.142 301.395 513.201 298.766C514.264 296.142 514.264 291.844 513.201 289.215C512.142 286.591 511.275 288.738 511.275 293.991ZM157.108 301.632C158.407 303.733 163.77 305.452 169.026 305.452C174.423 305.452 177.553 303.79 176.219 301.632C174.92 299.53 169.557 297.811 164.301 297.811C158.904 297.811 155.774 299.473 157.108 301.632ZM212.531 301.632C212.531 303.733 217.691 305.452 223.998 305.452C230.305 305.452 235.465 303.733 235.465 301.632C235.465 299.53 230.305 297.811 223.998 297.811C217.691 297.811 212.531 299.53 212.531 301.632ZM277.51 301.559C277.51 303.698 282.957 305.452 289.615 305.452C303.532 305.452 303.028 303.782 288.022 300.188C281.78 298.69 277.51 299.248 277.51 301.559ZM151.374 313.093C151.374 315.194 157.498 316.913 164.978 316.913C173.073 316.913 177.626 315.366 176.219 313.093C174.92 310.991 168.8 309.272 162.616 309.272C156.431 309.272 151.374 310.991 151.374 313.093ZM273.688 312.203C273.688 317.402 293.82 321.008 298.342 316.619C300.608 314.418 299.894 313.074 296.431 313.039C293.384 313.012 287.016 311.95 282.288 310.686C277.56 309.418 273.688 310.101 273.688 312.203ZM405.03 315.003C407.671 321.883 403.134 322.514 396.766 316.149C388.334 307.721 392.057 317.616 400.779 326.815C409.471 335.98 418.935 338.953 418.935 332.512C418.935 330.586 416.787 328.007 414.158 326.781C410.366 325.012 410.358 324.095 414.123 322.338C417.785 320.626 417.628 318.881 413.443 314.697C406.364 307.622 402.251 307.771 405.03 315.003ZM210.62 316.913C211.92 319.014 218.039 320.733 224.223 320.733C230.408 320.733 235.465 319.014 235.465 316.913C235.465 314.812 229.342 313.093 221.861 313.093C213.766 313.093 209.213 314.64 210.62 316.913ZM438.047 316.233C438.047 318.613 442.435 323.431 447.798 326.945C455.14 331.751 458.634 332.248 461.94 328.943C465.246 325.639 464.566 324.554 459.18 324.554C455.247 324.554 448.883 321.708 445.038 318.231C441.013 314.59 438.047 313.742 438.047 316.233ZM147.552 324.072C147.552 330.158 166.453 333.933 171.529 328.859C174.725 325.665 173.746 324.554 167.741 324.554C163.288 324.554 156.924 323.511 153.599 322.235C150.273 320.959 147.552 321.788 147.552 324.072ZM275.599 328.374C276.899 330.475 282.158 332.194 287.291 332.194C292.425 332.194 296.622 330.475 296.622 328.374C296.622 326.273 291.358 324.554 284.929 324.554C278.107 324.554 274.219 326.147 275.599 328.374ZM210.482 332.416C209.454 334.078 211.648 336.225 215.352 337.191C221.716 338.853 221.716 338.972 215.398 339.392C203.82 340.16 208.147 347.476 220.176 347.476C226.482 347.476 231.643 345.757 231.643 343.656C231.643 341.554 229.494 339.808 226.865 339.778C223.31 339.732 223.398 338.888 227.216 336.469C230.955 334.101 229.636 332.703 222.347 331.308C216.846 330.258 211.507 330.758 210.482 332.416ZM147.552 338.979C147.552 344.366 163.896 347.95 168.319 343.529C170.7 341.149 169.813 339.835 165.83 339.835C162.428 339.835 156.924 338.792 153.599 337.516C150.273 336.24 147.552 336.901 147.552 338.979ZM277.51 343.656C277.51 345.757 282.67 347.476 288.977 347.476C295.284 347.476 300.444 345.757 300.444 343.656C300.444 341.554 295.284 339.835 288.977 339.835C282.67 339.835 277.51 341.554 277.51 343.656ZM575.65 347.25C575.65 349.229 577.351 351.896 579.43 353.18C581.593 354.517 582.236 352.985 580.932 349.585C578.39 342.968 575.65 341.757 575.65 347.25ZM208.709 358.864C208.709 361.004 214.156 362.757 220.814 362.757C234.731 362.757 234.226 361.088 219.22 357.493C212.978 355.995 208.709 356.553 208.709 358.864ZM279.421 358.937C280.721 361.038 285.12 362.757 289.203 362.757C293.285 362.757 296.622 361.038 296.622 358.937C296.622 356.836 292.218 355.117 286.84 355.117C281.294 355.117 278.08 356.771 279.421 358.937ZM560.36 362.983C560.36 367.307 562.081 369.787 564.183 368.488C566.285 367.189 568.005 363.651 568.005 360.622C568.005 357.592 566.285 355.117 564.183 355.117C562.081 355.117 560.36 358.658 560.36 362.983ZM212.531 374.623C212.531 379.464 228.332 382.875 232.315 378.895C234.735 376.476 231.922 374.566 224.285 373.447C217.821 372.499 212.531 373.026 212.531 374.623ZM594.761 376.129C594.761 379.28 596.428 381.859 598.465 381.859C600.498 381.859 601.175 379.28 599.967 376.129C598.755 372.977 597.089 370.398 596.263 370.398C595.438 370.398 594.761 372.977 594.761 376.129ZM576.254 385.679C576.254 390.932 577.121 393.083 578.18 390.455C579.243 387.83 579.243 383.532 578.18 380.904C577.121 378.279 576.254 380.426 576.254 385.679ZM583.898 389.5C583.898 394.753 584.766 396.904 585.825 394.275C586.887 391.651 586.887 387.353 585.825 384.724C584.766 382.1 583.898 384.247 583.898 389.5ZM219.411 390.264C222.977 393.828 225.019 393.828 228.585 390.264C232.151 386.699 231.134 385.679 223.998 385.679C216.862 385.679 215.845 386.699 219.411 390.264ZM560.662 399.368C560.846 403.819 561.752 404.724 562.971 401.679C564.076 398.921 563.938 395.624 562.669 394.355C561.4 393.087 560.498 395.341 560.662 399.368ZM556.84 426.11C557.024 430.561 557.93 431.466 559.149 428.422C560.253 425.663 560.116 422.366 558.847 421.098C557.578 419.83 556.676 422.084 556.84 426.11ZM587.117 444.032C587.117 449.514 588.905 455.099 591.092 456.452C593.699 458.06 594.173 455.179 592.464 448.081C588.948 433.442 587.117 432.059 587.117 444.032ZM568.75 448.715C568.827 455.019 569.683 457.135 570.654 453.418C571.625 449.701 571.56 444.544 570.513 441.957C569.465 439.371 568.674 442.412 568.75 448.715ZM617.695 457.815C617.695 459.917 619.415 462.698 621.517 463.997C623.62 465.296 625.34 464.639 625.34 462.537C625.34 460.436 623.62 457.655 621.517 456.356C619.415 455.057 617.695 455.714 617.695 457.815ZM601.313 477.429C604.271 488.73 609.255 490.212 607.142 479.164C606.148 473.972 603.977 469.727 602.318 469.727C600.659 469.727 600.204 473.192 601.313 477.429ZM548.894 481.188C548.894 485.391 550.453 488.829 552.357 488.829C554.264 488.829 554.921 485.391 553.824 481.188C552.724 476.986 551.164 473.548 550.357 473.548C549.555 473.548 548.894 476.986 548.894 481.188ZM135.202 500.122C132.561 509.524 134.139 514.968 138.306 510.808C139.525 509.585 139.923 504.573 139.181 499.664L137.839 490.739L135.202 500.122ZM146.596 494.831C145.018 496.432 143.73 502.957 143.73 509.333C143.73 517.619 144.903 519.747 147.85 516.802C150.117 514.536 151.409 508.011 150.717 502.3C150.029 496.588 148.175 493.226 146.596 494.831ZM155.319 509.111C155.246 515.316 156.81 518.846 159.019 517.482C161.121 516.183 162.841 516.943 162.841 519.167C162.841 521.39 164.561 523.212 166.663 523.212C168.766 523.212 170.287 517.623 170.042 510.796C169.794 503.813 168.812 501.425 167.799 505.341C166.056 512.072 165.826 512.072 160.72 505.341C155.823 498.888 155.43 499.163 155.319 509.111ZM178.398 503.155C178.547 504.729 180.145 509.459 181.953 513.661C184.865 520.431 185.267 520.106 185.507 510.796C185.653 505.02 184.055 500.29 181.953 500.29C179.85 500.29 178.253 501.581 178.398 503.155ZM573.758 504.08C572.47 506.166 573.173 510.892 575.325 514.586C578.685 520.347 579.258 519.808 579.357 510.796C579.476 499.809 577.71 497.689 573.758 504.08ZM587.117 503.66C587.117 505.761 588.837 508.542 590.939 509.841C593.041 511.14 594.761 510.483 594.761 508.382C594.761 506.28 593.041 503.499 590.939 502.2C588.837 500.901 587.117 501.559 587.117 503.66ZM621.517 530.853C621.517 535.055 623.237 538.494 625.34 538.494C627.442 538.494 629.162 535.055 629.162 530.853C629.162 526.651 627.442 523.212 625.34 523.212C623.237 523.212 621.517 526.651 621.517 530.853ZM560.36 530.628C560.36 532.607 562.061 535.273 564.141 536.557C566.304 537.894 566.946 536.362 565.643 532.962C563.101 526.345 560.36 525.134 560.36 530.628ZM590.939 530.402C590.939 532.503 592.659 535.285 594.761 536.584C596.863 537.882 598.583 537.225 598.583 535.124C598.583 533.023 596.863 530.242 594.761 528.943C592.659 527.644 590.939 528.301 590.939 530.402ZM228.776 552.744C232.457 553.802 235.495 555.754 235.53 557.087C235.828 567.956 249.424 620.456 260.704 654.285C280.885 714.826 271.593 715.197 242.903 654.995C229.277 626.4 208.709 563.865 208.709 551.028C208.709 547.086 210.78 546.169 215.398 548.068C219.079 549.584 225.095 551.685 228.776 552.744ZM143.73 561.641C143.73 565.966 145.45 568.445 147.552 567.146C149.654 565.847 151.374 562.31 151.374 559.28C151.374 556.251 149.654 553.775 147.552 553.775C145.45 553.775 143.73 557.317 143.73 561.641ZM165.586 564.014C162.944 577.759 164.821 579.639 170.532 568.973C173.406 563.605 173.696 559.276 171.338 556.919C168.98 554.562 166.912 557.11 165.586 564.014ZM615.073 583.028C608.208 619.363 593.053 667.939 585.442 678.006C577.844 688.049 578.058 682.426 586.769 642.556C590.782 624.196 595.277 597.996 596.76 584.338C599.982 554.642 600.407 553.775 611.728 553.775H620.6L615.073 583.028ZM153.694 563.639C150.365 572.312 150.835 577.48 154.734 575.074C159.271 572.269 162.91 557.596 159.069 557.596C157.391 557.596 154.971 560.316 153.694 563.639Z" fill="#FFE9C4"/>
</svg>
