<svg width="509" height="317" viewBox="0 0 509 317" fill="none" xmlns="http://www.w3.org/2000/svg">
<path fill-rule="evenodd" clip-rule="evenodd" d="M276.492 8.71215C274.185 22.3779 273.315 23.8357 264.921 28.1153L256.702 32.305L253.118 24.7965L249.535 17.29L231.706 18.7395C199.578 21.3503 167.321 31.9792 148.915 46.0188L140.381 52.5289L125.919 49.4963C101.105 44.2915 70.582 50.4153 39.1961 66.8944C25.8525 73.9016 24.5545 75.1402 25.7125 79.7581C26.5611 83.1312 25.9027 85.6793 23.7728 87.2562C20.9448 89.3531 22.0045 93.6849 32.4553 122.731L44.3588 155.817L22.6462 176.105L0.933594 196.394L8.12166 201.793C19.9938 210.714 48.6018 225.119 89.5105 242.778C110.778 251.959 130.35 260.109 133.003 260.892C137.095 262.097 141.056 259.154 159.13 241.483C186.617 214.605 197.237 209.333 237.912 202.382C248.833 200.517 258.995 198.6 260.494 198.121C262.342 197.532 260.54 193.744 254.894 186.346C250.317 180.347 246.985 174.771 247.491 173.954C247.997 173.135 251.329 171.826 254.892 171.045C260.703 169.769 262.498 170.729 272.178 180.283C278.12 186.145 284.627 190.943 286.64 190.943C293.42 190.943 292.77 184.963 284.955 175.433C276.124 164.664 275.424 165.278 299.534 162.646C311.918 161.293 332.554 154.814 337.851 150.616C339.929 148.968 343.611 151.654 353.005 161.671C359.829 168.95 365.412 175.93 365.412 177.181C365.412 178.432 362.118 182.083 358.092 185.293C342.648 197.605 337.41 219.25 345.911 235.624L350.133 243.753L342.069 251.034C337.634 255.038 333.424 260.777 332.713 263.789C332.003 266.801 329.545 271.333 327.25 273.858C324.957 276.385 323.621 279.861 324.282 281.582C326.198 286.572 404.851 284.554 425.504 278.988C433.839 276.741 440.655 275.515 440.653 276.262C440.647 278.422 421.79 290.592 410.35 295.82C401.162 300.018 396.618 300.592 372.727 300.576C343.902 300.555 332.968 298.443 321.424 290.671C312.203 284.46 307.023 275.203 305.478 262.168L304.218 251.533L316.755 239.513C330.579 226.259 333.085 221.301 330.025 213.257C324.775 199.46 303.305 197.397 284.51 208.884C264.566 221.077 259.857 243.837 272.107 268.852C287.606 300.507 318.912 316.992 363.322 316.879C404.069 316.777 432.255 305.778 458.568 279.708C496.726 241.905 513.713 197.589 507.777 151.335C502.796 112.526 490.054 92.9852 453.376 67.9073C429.304 51.4471 389.946 38.1802 347.123 32.092C337.64 30.7427 329.879 29.2473 329.879 28.769C329.879 28.2886 331.994 27.048 334.582 26.0079C338.39 24.479 338.562 24.0947 335.489 23.9861C333.403 23.9151 329.95 24.7881 327.818 25.9264C321.337 29.3935 298.629 21.1707 289.503 12.0539C285.269 7.8224 281.805 3.57836 281.805 2.61969C281.805 1.66311 280.907 0.879883 279.809 0.879883C278.712 0.879883 277.219 4.40545 276.492 8.71215ZM310.714 26.7222L323.895 30.4169L320.281 36.0123C309.74 52.3305 307.234 55.3444 305.94 53.2537C303.825 49.8346 297.241 50.5448 285.919 55.4112C276.375 59.5132 271.66 65.2277 274.297 69.4905C274.914 70.4888 271.689 72.7675 267.132 74.5575C261.593 76.7317 258.398 77.0868 257.499 75.6331C256.299 73.6928 250.564 73.8912 230.647 76.5604C226.575 77.1056 223.111 69.7537 218.331 50.4132L216.895 44.5964L225.615 49.0431C232.549 52.577 235.335 53.0344 239.197 51.2779C243.121 49.49 244.442 49.7511 246.053 52.6292C247.15 54.5883 248.762 55.4801 249.634 54.6092C250.505 53.7383 250.106 51.9128 248.745 50.5531C244.494 46.3049 246.049 43.8905 250.465 47.886C255.313 52.2679 258.63 50.5949 254.633 45.7849C253.155 44.0054 252.629 41.8708 253.461 41.0375C254.295 40.2062 256.299 41.3361 257.917 43.548C259.537 45.7598 261.512 46.9169 262.31 46.119C263.109 45.3233 262.647 43.5584 261.286 42.1987C259.925 40.8411 258.814 38.3432 258.814 36.6493C258.814 34.4229 260.26 34.9283 264.039 38.4747C269.632 43.7255 270.656 42.8859 266.994 36.052C264.965 32.2611 265.214 31.9687 269.346 33.2804C272.278 34.2098 273.486 33.9675 272.653 32.6183C271.929 31.4466 272.713 27.8229 274.398 24.5626C276.082 21.3002 278.005 15.9638 278.674 12.7035L279.889 6.77392L288.711 14.8986C294.896 20.5963 301.474 24.1302 310.714 26.7222ZM251.028 26.883L254.466 34.0887L244.983 42.4306C234.827 51.3635 233.105 51.4032 219.623 43.0112C215.238 40.2814 214.92 40.4213 214.92 45.0956C214.92 47.8526 217.165 56.9589 219.909 65.33C225.659 82.8701 225.252 86.3581 216.73 92.6552C209.038 98.3383 205.751 106.162 208.723 111.712C211.632 117.146 215.298 116.799 221.191 110.532C228.283 102.99 238.748 103.574 255.085 112.43C262.308 116.344 273.543 121.19 280.05 123.195C291.529 126.733 296.436 131.647 296.436 139.609C296.436 143.11 287.164 144.994 269.948 144.994C256.627 144.994 256.445 144.914 246.074 134.55C232.457 120.943 222.24 120.899 229.514 134.479C231.037 137.324 230.768 138.615 228.469 139.498C220.748 142.458 227.371 153.787 238.434 156.543C241.597 157.333 244.182 158.582 244.182 159.317C244.182 160.848 187.896 181.484 187.073 180.257C186.776 179.817 182.498 166.297 177.565 150.215C172.63 134.133 162.612 105.937 155.3 87.5569L142.009 54.1393L146.591 50.4048C154.466 43.9845 177.897 32.7812 193.099 28.1675C205.132 24.5145 221.469 21.8954 244.318 19.9551C246.145 19.8005 249.107 22.8562 251.028 26.883ZM345.906 34.5127C357.839 36.5887 359.141 37.3072 359.141 41.8228C359.141 44.6779 360.377 46.8292 362.015 46.8292C363.595 46.8292 367.828 47.4161 371.421 48.1345C375.641 48.9783 377.953 48.6086 377.953 47.0902C377.953 45.7974 376.072 44.7406 373.772 44.7406C371.473 44.7406 369.592 43.4519 369.592 41.8771C369.592 38.1239 382.11 40.3795 403.254 47.9403C411.755 50.9813 421.781 54.3732 425.537 55.4781C434.974 58.2559 464.534 78.578 477.699 91.3394C489.48 102.758 496.622 115.759 502.38 136.269C507.605 154.873 505.789 189.976 498.417 212.917C485.443 253.281 448.586 294.347 415.227 305.605C400.052 310.726 393.47 311.138 391.907 307.065C391.135 305.058 392.872 303.746 397.431 302.888C412.911 299.978 446.928 279.011 446.928 272.377C446.928 271.486 438.229 272.941 427.594 275.611C411.866 279.562 400.761 280.661 368.054 281.503C345.94 282.073 327.425 281.856 326.911 281.022C324.196 276.634 332.243 271.974 350.829 267.171C367.537 262.851 369.592 261.21 369.592 252.179C369.592 247.924 370.443 245.526 371.682 246.291C372.926 247.059 373.772 244.572 373.772 240.148C373.772 234.791 372.857 232.715 370.497 232.715C368.355 232.715 367.596 231.447 368.307 229.06C368.904 227.048 370.041 222.585 370.834 219.139C372.794 210.615 379.915 196.764 384.006 193.518C390.659 188.24 400.096 183.879 410.35 181.348C419.221 179.157 419.8 178.739 414.181 178.589C405.47 178.355 390.834 184.761 381.634 192.833L374.249 199.312L372.863 190.078C371.402 180.345 364.962 170.082 351.332 155.764C343.227 147.249 343.166 147.072 347.464 144.214C349.863 142.617 353.577 138.145 355.718 134.275C359.474 127.485 359.329 127.545 351.537 136.046C330.364 159.144 286.445 167.578 246.162 156.282C222.524 149.655 220.789 138.124 244.337 144.152C263.404 149.033 293.987 147.427 306.887 140.866C318.095 135.167 332.632 124.074 331.012 122.455C330.381 121.823 327.749 123.207 325.168 125.53C317.432 132.487 316.866 132.483 294.06 125.25C271.825 118.199 253.367 109.928 244.621 103.094C240.209 99.6479 239.114 99.5998 230.642 102.484C225.586 104.205 220.336 106.956 218.975 108.595C215.11 113.247 210.74 112.154 210.74 106.54C210.74 103.495 213.248 99.3951 217.081 96.1724L223.425 90.8381L230.063 94.8733C233.717 97.0935 237.212 98.1399 237.83 97.2C238.449 96.2622 243.19 94.1026 248.363 92.4046C254.282 90.4601 258.707 87.442 260.3 84.259C263.408 78.0559 273.357 73.4359 277.056 76.4811C279.742 78.6908 308.81 71.1697 309.147 68.1768C309.241 67.3497 309.527 64.3212 309.786 61.4494C310.436 54.204 325.078 32.2089 329.25 32.2089C331.131 32.2089 338.628 33.2449 345.906 34.5127ZM357.051 50.6555C357.051 53.0448 375.708 57.1239 377.01 55.0186C377.587 54.085 374.508 52.3347 370.169 51.1317C360.615 48.4791 357.051 48.3518 357.051 50.6555ZM131.663 53.1576C138.692 55.1084 139.883 56.6205 146.062 71.4204C160.979 107.163 183.568 172.632 183.568 180.128C183.568 181.669 179.862 182.59 173.639 182.595C155.39 182.605 127.278 187.031 100.432 194.117C85.8025 197.979 73.2469 200.49 72.5279 199.696C71.8089 198.902 66.7402 184.625 61.2661 167.968C55.792 151.312 47.5839 128.285 43.0253 116.797C38.4666 105.31 32.9674 91.4501 30.8041 85.9967L26.8725 76.0821L43.8467 67.5544C53.1814 62.8654 67.5094 57.2743 75.6882 55.1314C92.1211 50.8267 119.753 49.8514 131.663 53.1576ZM403.77 54.5257C404.558 55.3131 408.241 57.0654 411.958 58.4209C415.672 59.7764 420.356 61.583 422.369 62.4352C424.639 63.398 426.026 63.068 426.026 61.5663C426.026 58.682 413.433 53.095 406.933 53.095C404.406 53.095 402.982 53.7383 403.77 54.5257ZM292.352 61.2698C291.069 63.6654 288.327 65.6266 286.259 65.6266C279.393 65.6266 279.469 62.7276 286.429 59.1227C294.468 54.958 295.527 55.3423 292.352 61.2698ZM305.619 58.4877C308.198 65.2047 306.664 67.3998 297.11 70.6518C284.535 74.9334 277.625 74.9522 277.625 70.7082C277.625 68.3585 278.835 67.8175 281.908 68.7929C287.104 70.4408 295.586 65.3279 297.465 59.4172C299.064 54.3795 303.831 53.8343 305.619 58.4877ZM357.051 58.9514C357.051 61.1256 363.97 63.4628 370.533 63.5087C376.471 63.5505 371.948 60.0772 363.844 58.3708C359.892 57.5395 357.051 57.7818 357.051 58.9514ZM405.125 63.538C405.125 64.6867 406.797 65.6266 408.839 65.6266C410.883 65.6266 414.585 67.0468 417.064 68.7825C419.762 70.6706 422.074 71.1259 422.822 69.9145C424.195 67.6943 413.529 61.4494 408.365 61.4494C406.582 61.4494 405.125 62.3893 405.125 63.538ZM358.096 67.7152C358.807 68.8639 362.21 69.8038 365.658 69.8038C369.306 69.8038 371.39 68.9308 370.637 67.7152C369.927 66.5665 366.524 65.6266 363.075 65.6266C359.428 65.6266 357.344 66.4996 358.096 67.7152ZM404.128 69.7244C403.53 70.6935 406.001 72.5169 409.619 73.7784C417.568 76.5458 417.666 76.5521 417.666 74.1857C417.666 71.5749 405.47 67.5565 404.128 69.7244ZM446.19 73.3252C445.482 74.0332 446.535 75.8336 448.529 77.3248C451.756 79.7414 451.587 79.8959 446.976 78.7305C442.555 77.6152 443.141 78.6991 450.979 86.1492C461.43 96.0826 464.676 95.9907 457.398 85.9654C453.401 80.4598 453.265 79.8813 456.666 82.8576C463.085 88.4738 465.012 87.1914 459.31 81.099C453.318 74.6974 447.982 71.5352 446.19 73.3252ZM255.296 77.4272C256.044 78.1749 254.265 80.9987 251.345 83.7034C246.893 87.8263 245.294 88.2399 241.451 86.2662C237.672 84.3259 237.325 84.3969 239.48 86.6755C243.591 91.0198 242.571 92.8808 236.344 92.4046C231.675 92.0495 230.515 90.8736 230.162 86.1429C229.794 81.2326 230.776 80.0171 236.432 78.3838C244.571 76.032 253.448 75.583 255.296 77.4272ZM403.035 77.9347C403.035 79.944 408.118 82.3772 412.089 82.2686C413.431 82.2331 412.704 80.8233 410.474 79.1357C405.867 75.654 403.035 75.1966 403.035 77.9347ZM272.312 80.3888C271.553 81.6169 269.63 82.1203 268.037 81.5104C265.659 80.5977 265.602 81.1407 267.728 84.566C269.843 87.9767 269.745 89.0795 267.191 90.6668C264.988 92.037 266.332 92.461 271.777 92.1143C280.275 91.5691 285.323 88.6012 277.746 88.6012C273.718 88.6012 273.192 87.8034 274.304 83.3797C275.664 77.9598 274.705 76.5207 272.312 80.3888ZM254.892 87.0703C252.827 89.1171 252.589 88.8769 253.722 85.9007C254.508 83.8413 255.676 82.6821 256.32 83.3254C256.964 83.9666 256.322 85.6521 254.892 87.0703ZM400.945 84.2005C400.945 86.5168 407.374 89.138 409.021 87.4922C409.686 86.828 408.845 85.4119 407.154 84.3426C403.246 81.8717 400.945 81.8195 400.945 84.2005ZM440.681 85.9905C440.693 86.851 443.985 90.7441 447.996 94.6373C452.517 99.0275 455.289 100.567 455.289 98.685C455.289 97.0141 452.651 93.123 449.426 90.0361C443.55 84.4094 440.639 83.0643 440.681 85.9905ZM38.9453 115.231C44.6556 129.878 53.7917 155.489 59.2491 172.145C64.7065 188.802 69.5076 203.032 69.9173 203.769C70.329 204.504 84.655 201.497 101.755 197.083C122.809 191.649 141.875 188.261 160.818 186.588C186.241 184.341 191.634 183.085 219.953 172.812C248.873 162.323 256.723 160.767 256.723 165.529C256.723 166.556 247.552 169.992 236.344 173.163C225.137 176.333 209.381 181.156 201.334 183.877C193.287 186.598 182.69 188.831 177.784 188.84C166.261 188.858 126.492 197.457 95.3065 206.674C81.8249 210.657 69.5808 213.917 68.0947 213.917C66.4372 213.917 61.912 202.432 56.3689 184.155C51.4047 167.784 42.2519 140.394 36.0295 123.287C24.0863 90.4496 23.5847 88.6012 26.6405 88.6012C27.7002 88.6012 33.237 100.584 38.9453 115.231ZM59.1906 92.7972C58.3921 94.088 58.3545 95.761 59.107 96.5129C59.8594 97.2648 61.2703 96.5943 62.2401 95.0237C64.0836 92.0474 70.699 93.3173 70.699 96.6507C70.699 97.7033 68.3476 100.103 65.4736 101.985C57.4662 107.227 58.7015 111.63 68.0863 111.3L75.9244 111.027L68.6088 109.698L61.2933 108.372L67.1457 104.443C74.7058 99.3701 74.1812 92.0161 66.1926 91.0929C63.141 90.74 59.989 91.5065 59.1906 92.7972ZM436.477 94.4305C436.477 97.1854 445.793 105.31 448.953 105.31C450.929 105.31 450.586 104.019 447.798 100.939C443.055 95.7025 436.477 91.92 436.477 94.4305ZM81.6723 102.459C81.6723 105.531 82.638 106.697 84.5735 105.955C86.1683 105.343 89.1071 106.106 91.1052 107.651C94.182 110.032 94.1485 109.769 90.8732 105.928C88.7496 103.434 87.5039 100.598 88.108 99.6228C88.7099 98.6474 87.5081 97.8516 85.4388 97.8516C82.9473 97.8516 81.6723 99.4118 81.6723 102.459ZM103.707 99.1424L108.497 101.064L103.855 107.338C101.303 110.788 99.6164 113.974 100.11 114.414C102.028 116.129 122.748 117.113 121.714 115.44C121.11 114.462 116.91 113.664 112.379 113.664C103.276 113.664 102.524 112.647 107.53 107.119C111.886 102.311 109.818 96.918 103.684 97.0872L98.9162 97.2209L103.707 99.1424ZM436.417 104.201C439.084 107.037 442.221 108.769 443.392 108.046C444.625 107.284 443.525 105.122 440.766 102.889C433.821 97.2689 430.767 98.1921 436.417 104.201ZM128.243 102.962C129.357 104.011 133.561 105.538 137.584 106.354C142.339 107.319 144.168 107.127 142.81 105.807C141.66 104.688 137.457 103.163 133.469 102.413C129.065 101.588 127.014 101.803 128.243 102.962ZM428.117 107.046C428.117 107.929 429.245 109.78 430.625 111.158C434.044 114.575 436.596 114.316 435.204 110.692C433.961 107.453 428.117 104.445 428.117 107.046ZM130.145 110.598C132.378 112.284 135.199 113.635 136.416 113.598C137.634 113.562 136.802 112.152 134.572 110.465C132.34 108.779 129.518 107.428 128.302 107.465C127.083 107.501 127.915 108.911 130.145 110.598ZM488.731 125.225C488.731 125.841 490.341 128.895 492.308 132.013C495.863 137.65 495.859 137.663 491.62 134.028C484.994 128.347 483.792 129.707 488.99 137.003C491.589 140.649 494.084 142.523 494.536 141.167C494.989 139.812 496.218 139.233 497.27 139.883C500.162 141.668 499.565 137.172 495.993 130.269C493.246 124.962 488.731 121.825 488.731 125.225ZM311.068 134.565C311.068 135.338 308.689 137.051 305.784 138.375C301.016 140.545 300.301 140.257 298.468 135.44C297.35 132.504 296.436 129.78 296.436 129.39C296.436 128.997 299.728 129.686 303.752 130.918C307.776 132.153 311.068 133.794 311.068 134.565ZM480.371 135.787C480.371 136.468 482.177 139.319 484.384 142.124C489.21 148.254 491.994 145.505 487.481 139.068C484.538 134.87 480.371 132.949 480.371 135.787ZM477.802 148.074C481.478 155.457 484.551 157.596 484.551 152.769C484.551 149.271 478.584 140.816 476.115 140.816C475.055 140.816 475.814 144.083 477.802 148.074ZM472.65 153.348C474.957 159.459 478.28 161.842 478.28 157.387C478.28 153.954 474.171 147.082 472.119 147.082C471.109 147.082 471.347 149.902 472.65 153.348ZM463.649 152.949C463.649 153.878 465.031 156.462 466.718 158.693C469.851 162.832 470.936 160.514 468.651 154.563C467.341 151.151 463.649 149.958 463.649 152.949ZM457.379 154.294C457.379 156.959 462.466 165.88 463.986 165.88C466.287 165.88 466.206 165.011 463.313 158.668C461.25 154.14 457.379 151.289 457.379 154.294ZM450.157 158.569C450.977 160.867 452.103 164.85 452.661 167.421C453.219 169.992 454.509 171.581 455.527 170.953C458.602 169.056 457.628 164.534 453.023 159.323C449.24 155.04 448.864 154.939 450.157 158.569ZM66.6984 218.095C68.6151 218.095 79.4714 215.214 90.821 211.697C130.308 199.454 184.905 189.182 193.329 192.413C198.376 194.349 189.859 205.918 163.929 232.345C141.087 255.625 138.096 257.985 132.791 256.924C117.502 253.868 37.7643 217.069 13.3115 201.783L5.04076 196.611L24.8074 178.24L44.572 159.866L53.892 188.979C60.9568 211.054 64.0544 218.095 66.6984 218.095ZM442.748 161.13C442.748 162.153 444.186 164.816 445.944 167.047C449.039 170.974 449.123 170.94 448.556 166.042C448.019 161.377 442.748 156.917 442.748 161.13ZM438.567 167.845C438.567 170.209 439.508 172.145 440.658 172.145C441.807 172.145 442.748 170.792 442.748 169.136C442.748 167.479 441.807 165.545 440.658 164.835C439.508 164.125 438.567 165.481 438.567 167.845ZM288.076 185.845C288.076 189.291 284.773 189.873 282.85 186.766C281.145 184.009 283.645 180.099 286.13 181.634C287.2 182.294 288.076 184.188 288.076 185.845ZM370.719 193.998C371.636 201.336 371.225 207.86 369.567 212.274C368.148 216.05 366.398 228.5 365.677 239.939L364.367 260.742L355.96 263.167C330.646 270.468 328.606 268.944 343.62 253.939L353.182 244.386L348.565 234.534C342.761 222.151 343.678 206.95 350.864 196.471C355.27 190.047 364.197 182.789 367.874 182.645C368.654 182.613 369.933 187.722 370.719 193.998ZM494.97 200.446C494.943 203.771 494.58 203.955 492.993 201.446C490.443 197.415 489.409 198.717 487.64 208.174C486.662 213.404 486.948 216.006 488.499 216.006C489.776 216.006 490.821 214.596 490.821 212.873C490.821 211.15 492.124 209.74 493.712 209.74C497.284 209.74 499.788 201.156 497.023 198.393C495.721 197.092 494.991 197.823 494.97 200.446ZM377.894 205.672C376.632 208.03 375.921 211.555 376.318 213.504C376.835 216.054 378.047 215.052 380.63 209.941C384.817 201.657 384.867 201.386 382.206 201.386C381.098 201.386 379.157 203.316 377.894 205.672ZM385.605 205.193C381.903 209.279 380.99 213.917 383.887 213.917C385.808 213.917 391.135 203.42 389.862 202.148C389.43 201.714 387.513 203.084 385.605 205.193ZM322.281 207.804C326.261 210.931 327.789 214.062 327.789 219.085C327.789 224.995 325.878 227.69 315.035 237.078L302.278 248.118L303.081 262.281C303.652 272.396 305.115 278.102 308.198 282.252C314.178 290.304 327.413 299.126 336.15 300.885L343.465 302.357L336.672 304.147C332.937 305.131 329.879 306.867 329.879 308.005C329.879 311.073 319.993 308.214 306.887 301.355C288.91 291.946 269.264 265.345 269.264 250.412C269.264 247.435 270.088 245.508 271.093 246.13C272.099 246.75 273.507 243.599 274.224 239.125C274.939 234.651 276.099 229.501 276.799 227.675C277.5 225.852 277.059 224.36 275.819 224.36C274.578 224.36 272.682 227.416 271.603 231.148C270.525 234.881 269.557 236.245 269.452 234.177C268.968 224.519 282.817 209.485 295.778 205.599C306.4 202.411 316.492 203.251 322.281 207.804ZM390.398 207.831C387.3 213.615 389.716 215.741 393.585 210.632C397.161 205.908 397.556 203.474 394.747 203.474C393.639 203.474 391.681 205.436 390.398 207.831ZM397.947 209.475C393.702 217.677 396.515 219.611 401.285 211.77C405.681 204.548 405.915 203.474 403.089 203.474C401.969 203.474 399.655 206.175 397.947 209.475ZM480.371 210.785C480.371 214.805 481.311 218.095 482.461 218.095C483.61 218.095 484.551 214.805 484.551 210.785C484.551 206.764 483.61 203.474 482.461 203.474C481.311 203.474 480.371 206.764 480.371 210.785ZM472.631 212.873C472.518 216.894 473.162 220.183 474.063 220.183C476.309 220.183 478.251 212.094 476.87 208.495C474.867 203.284 472.844 205.375 472.631 212.873ZM461.559 213.665C461.559 216.484 462.178 218.172 462.935 217.416C463.691 216.66 465.572 217.09 467.115 218.368C469.358 220.229 469.92 219.413 469.92 214.304C469.92 209.199 469.078 207.975 465.74 208.226C462.78 208.449 461.559 210.037 461.559 213.665ZM403.756 212.963C401.812 218.026 404.525 218.941 407.119 214.097C408.737 211.075 408.768 209.74 407.223 209.74C405.996 209.74 404.437 211.19 403.756 212.963ZM279.126 227.876C276.684 232.003 275.468 242.87 277.318 244.012C278.432 244.701 279.991 241.437 280.783 236.76C282.148 228.684 281.308 224.185 279.126 227.876ZM285.463 231.821C284.602 232.696 283.895 235.791 283.895 238.703C283.895 242.504 284.533 243.356 286.163 241.727C287.409 240.482 288.116 237.385 287.731 234.845C287.346 232.308 286.324 230.946 285.463 231.821ZM290.342 238.262C288.076 246.464 289.817 252.92 292.469 246.153C293.849 242.632 294.07 242.581 294.2 245.769C294.365 249.883 298.51 250.877 298.556 246.813C298.571 245.378 299.112 241.852 299.756 238.981C300.907 233.845 300.87 233.828 297.387 237.936C293.93 242.02 293.88 241.984 295.182 236.37C297.193 227.706 292.783 229.432 290.342 238.262ZM375.863 236.769C375.863 238.999 376.803 241.403 377.953 242.114C379.138 242.847 380.043 241.09 380.043 238.06C380.043 235.121 379.102 232.715 377.953 232.715C376.803 232.715 375.863 234.538 375.863 236.769ZM383.065 234.985C382.294 236.234 382.708 238.302 383.987 239.58C385.695 241.286 386.313 240.683 386.313 237.31C386.313 232.266 385.229 231.489 383.065 234.985ZM390.494 238.857C390.494 241.088 391.434 243.492 392.584 244.202C393.769 244.935 394.674 243.179 394.674 240.148C394.674 237.21 393.733 234.803 392.584 234.803C391.434 234.803 390.494 236.627 390.494 238.857ZM296.436 272.536C296.436 276.145 300.594 282.841 302.834 282.841C303.974 282.841 303.445 280.022 301.662 276.576C298.316 270.109 296.436 268.658 296.436 272.536ZM290.212 274.103C290.145 278.058 294.144 284.93 296.51 284.93C299.545 284.93 298.882 282.369 294.346 276.576C292.097 273.704 290.237 272.59 290.212 274.103ZM285.798 280.402C288.07 284.646 294.346 290.402 294.346 288.245C294.346 287.491 292.827 284.554 290.971 281.724C287.047 275.74 282.708 274.631 285.798 280.402ZM373.772 305.749C381.284 305.904 382.432 306.376 379.476 308.097C377.441 309.281 376.32 311.131 376.987 312.209C377.7 313.362 372.058 314.17 363.322 314.17C354.673 314.17 348.948 313.356 349.646 312.226C350.308 311.157 349.892 309.692 348.724 308.97C343.682 305.856 347.152 303.581 355.483 304.538C360.37 305.097 368.599 305.643 373.772 305.749Z" fill="#00A199"/>
</svg>
