<svg width="880" height="1200" viewBox="0 0 880 1200" fill="none" xmlns="http://www.w3.org/2000/svg">
<path fill-rule="evenodd" clip-rule="evenodd" d="M221.929 72.8101C224.607 75.2964 213.669 93.4054 197.619 113.054C164.655 153.393 124.712 231.585 108.092 288.308C95.2379 332.16 100.081 339.743 114.795 298.812C122.829 276.48 128.647 269.545 145.509 262.233C163.037 254.622 163.787 253.675 150.256 256.2C138.705 258.36 134.871 257.153 136.596 251.91C137.915 247.896 147.674 243.572 158.29 242.303L177.588 239.991L161.346 236.665L145.104 233.339L171.37 204.146C195.832 176.959 262.785 129.037 276.31 129.037C280.375 129.037 280.234 132.865 275.865 141.029C269.167 153.545 275.814 162.583 291.859 162.78C296.679 162.836 297.852 167.493 295.456 177.033C288.572 204.473 316.456 217.536 342.694 199.162C354.302 191.026 356.552 191.263 372.027 202.285C381.245 208.848 390.902 218.004 393.49 222.627C397.222 229.291 401.4 229.815 413.696 225.141C443.863 213.668 446.733 216.915 432.165 246.024C411.644 287.017 374.953 405.295 382.756 405.295C385.191 405.295 403.39 384.367 423.206 358.783C443.023 333.203 475.508 296.23 495.386 276.621C538.368 234.235 608.141 183.928 618.458 187.886C622.489 189.436 625.786 188.241 625.786 185.242C625.786 182.237 631.199 179.778 637.812 179.778C647.086 179.778 636.532 192.988 591.706 237.505C464.79 363.541 422.75 436.811 422.885 531.765C422.953 581.266 436.85 613.555 479.725 663.845C548.307 744.287 556.257 755.456 556.257 771.394C556.257 780.155 561.753 794.312 568.468 802.854C577.392 814.203 580.679 826.149 580.657 847.224C580.64 863.083 584.755 887.575 589.795 901.647C598.962 927.215 598.951 927.26 580.877 963.072L562.785 998.912L550.202 976.953C543.279 964.876 517.424 927.085 492.748 892.976C448.971 832.464 448.074 830.564 455.713 814.789C465.833 793.895 470.563 758.184 464.926 745.251C462.49 739.675 460.906 733.208 461.396 730.885C462.817 724.182 449.129 726.307 438.394 734.46C424.001 745.386 410.589 781.48 412.207 804.906C412.985 816.131 410.617 830.863 406.947 837.634C393.851 861.815 401.648 880.426 453.165 947.974L468.77 968.434L446.315 979.884C433.969 986.188 413.481 992.998 400.797 995.028C386.432 997.328 377.727 1001.72 377.727 1006.68C377.727 1017.18 396.923 1054.41 421.126 1090.87C443.643 1124.78 480.114 1146.82 545.804 1166.21C588.662 1178.86 597.017 1190.35 565.649 1193.48C542.67 1195.78 441.833 1174.79 399.128 1158.82C372.732 1148.95 364.304 1143.07 363.638 1134.1C362.127 1113.55 345.406 1094.88 314.9 1079.68C281.068 1062.82 262.097 1060.99 254.875 1073.9C242.946 1095.22 155.934 986.718 106.773 889.21C43.6134 763.941 11.2755 631.641 11.2755 498.502C11.2755 322.457 56.5293 200.898 163.116 90.6598C186.484 66.4843 194.445 61.461 204.548 64.5111C211.426 66.5858 219.245 70.3238 221.929 72.8101ZM191.682 195.711C191.682 204.811 232.9 236.158 244.869 236.158C254.176 236.158 246.03 212.828 233.204 202.742C218.546 191.212 191.682 186.662 191.682 195.711ZM219.149 201.766C220.688 202.742 217 201 214.5 205.5C212.667 208.799 214.606 211.5 211.803 208.402C201.041 196.506 205.083 192.853 219.149 201.766ZM603.236 202.33C603.236 205.431 606.889 207.968 611.359 207.968C615.83 207.968 621.051 205.431 622.968 202.33C624.885 199.229 621.226 196.692 614.844 196.692C608.462 196.692 603.236 199.229 603.236 202.33ZM239.603 219.244C241.52 222.345 239.603 226.5 235 224C228 221 234.5 221.5 236 218.5C237.5 215.5 236 214.5 236 213.5C236.5 214 237.686 216.143 239.603 219.244ZM278.148 250.613C268.868 274.8 297.209 298.175 335.811 298.175C362.398 298.175 364.738 276.277 340.479 254.481C323.334 239.078 283.521 236.609 278.148 250.613ZM203.989 255.845C205.049 262.024 213.495 270.684 222.757 275.088C232.026 279.496 242.918 287.756 246.971 293.456C251.78 300.216 260.587 303.52 272.341 302.967C288.786 302.195 289.04 301.924 275.25 299.815C255.659 296.816 242.704 282.417 253.562 275.708C259.769 271.868 259.448 269.292 251.792 261.635C243.493 253.336 242.422 253.274 242.422 261.128C242.422 274.388 221.878 271.868 211.285 257.3C202.817 245.658 202.219 245.534 203.989 255.845ZM316.96 261.55C317.751 262.066 317.179 262.953 316.244 262.82C314.062 262.509 311.213 262.67 309.5 265C309 265.68 308 267.5 308 270.14C306 269 305.938 268.974 304.386 267.104C298.72 260.277 299.064 258.709 306.235 258.709C309.878 258.709 314.256 259.787 316.96 261.55ZM149.168 276.001C143.102 285.816 150.008 287.897 157.743 278.577C162.191 273.221 162.62 269.985 158.876 269.985C155.584 269.985 151.209 272.691 149.168 276.001ZM335.444 275.623C337.361 278.724 336.239 281.261 332.958 281.261C331.335 281.261 325.965 279.503 325.5 278.5C327 278.363 328.739 277.877 329.474 276C330.5 273.377 330 271 329.474 269.985C330.844 269.985 333.527 272.522 335.444 275.623ZM436.404 312.952C438.609 318.691 432.103 332.335 418.939 349.598C407.398 364.731 397.352 377.106 396.602 377.106C395.858 377.106 399.173 363.789 403.976 347.507C416.227 305.966 428.647 292.734 436.404 312.952ZM324.169 320.727C326.085 323.827 330.19 326.364 333.29 326.364C336.391 326.364 337.361 323.827 335.444 320.727C333.527 317.626 329.423 315.089 326.322 315.089C323.222 315.089 322.252 317.626 324.169 320.727ZM287.704 329.516C287.602 332.797 291.25 340.408 295.8 346.43C300.355 352.445 304.16 354.689 304.256 351.402C304.358 348.121 300.71 340.51 296.16 334.489C291.605 328.473 287.8 326.229 287.704 329.516ZM312.927 337.674C318.553 343.898 324.383 347.76 325.877 346.266C329.665 342.478 315.605 326.364 308.513 326.364C305.311 326.364 307.295 331.455 312.927 337.674ZM187.144 481.407C187.257 490.71 188.52 493.833 189.952 488.348C191.384 482.862 191.288 475.251 189.743 471.434C188.198 467.617 187.031 472.105 187.144 481.407ZM220.316 476.237C220.587 482.806 221.923 484.142 223.721 479.648C225.351 475.578 225.148 470.712 223.276 468.84C221.404 466.969 220.074 470.295 220.316 476.237ZM248.06 529.33C248.06 532.431 250.749 534.968 254.03 534.968C257.311 534.968 258.433 532.431 256.516 529.33C254.599 526.229 251.916 523.692 250.546 523.692C249.176 523.692 248.06 526.229 248.06 529.33ZM866.027 711.22C883.177 795.862 865.074 907.155 822.689 977.663C770.405 1064.63 667.325 1113.8 569.505 1098.42C520.728 1090.75 468.624 1065.83 440.255 1036.6C402.234 997.418 412.478 981.519 452.461 1017.65C491.22 1052.66 519.076 1062.11 583.504 1062.11C632.873 1062.11 643.889 1060.24 672.117 1047C762.952 1004.43 811.938 911.835 813.252 780.217C813.737 731.934 811.758 718.803 799.462 688.798L785.108 653.753L804.153 647.467C814.622 644.011 826.117 635.717 829.691 629.042C835.865 617.507 836.71 618.116 846.447 641.034C852.084 654.311 860.896 685.895 866.027 711.22ZM242.422 669.613C242.422 672.713 244.959 676.818 248.06 678.735C251.16 680.652 253.697 679.682 253.697 676.581C253.697 673.48 251.16 669.376 248.06 667.459C244.959 665.542 242.422 666.512 242.422 669.613ZM158.301 690.478C158.572 697.047 159.908 698.383 161.707 693.889C163.336 689.819 163.133 684.953 161.261 683.081C159.389 681.21 158.059 684.536 158.301 690.478ZM192.72 712.585C196.255 720.354 200.24 725.614 201.571 724.289C205.551 720.303 196.971 698.467 191.423 698.467C188.599 698.467 189.179 704.821 192.72 712.585ZM315.712 706.924C315.712 711.576 318.17 715.381 321.175 715.381C324.174 715.381 325.172 711.576 323.391 706.924C321.604 702.273 319.145 698.467 317.928 698.467C316.71 698.467 315.712 702.273 315.712 706.924ZM231.327 712.895C231.225 716.176 234.873 723.787 239.423 729.809C243.978 735.824 247.783 738.068 247.879 734.781C247.981 731.5 244.333 723.889 239.783 717.867C235.228 711.852 231.423 709.608 231.327 712.895ZM293.161 752.028C293.161 756.679 295.619 760.485 298.624 760.485C301.623 760.485 302.621 756.679 300.84 752.028C299.053 747.376 296.595 743.571 295.377 743.571C294.159 743.571 293.161 747.376 293.161 752.028ZM338.263 783.036C338.263 786.137 340.952 788.674 344.233 788.674C347.514 788.674 348.636 786.137 346.72 783.036C344.803 779.935 342.119 777.398 340.749 777.398C339.379 777.398 338.263 779.935 338.263 783.036ZM225.509 788.009C225.509 791.11 228.046 795.214 231.146 797.131C234.247 799.048 236.784 798.078 236.784 794.977C236.784 791.877 234.247 787.772 231.146 785.855C228.046 783.938 225.509 784.908 225.509 788.009ZM281.886 799.285C281.886 802.386 284.423 806.49 287.523 808.407C290.624 810.324 293.161 809.354 293.161 806.253C293.161 803.152 290.624 799.048 287.523 797.131C284.423 795.214 281.886 796.184 281.886 799.285ZM321.35 828.14C321.35 831.24 324.039 833.778 327.32 833.778C330.601 833.778 331.723 831.24 329.806 828.14C327.89 825.039 325.206 822.502 323.836 822.502C322.466 822.502 321.35 825.039 321.35 828.14ZM494.766 909.636C548.482 984.434 558.608 1004.7 547.704 1015.6C538.216 1025.09 508.274 1001.03 464.971 949.141C418.725 893.726 407.331 873.75 418.07 866.945C423.917 863.236 423.398 862.119 415.782 862.052C404.292 861.95 403.773 859.588 411.937 844.343C424.289 821.256 440.418 833.969 494.766 909.636ZM267.792 850.691C269.708 853.792 272.392 856.329 273.762 856.329C275.132 856.329 276.248 853.792 276.248 850.691C276.248 847.591 273.559 845.053 270.278 845.053C266.997 845.053 265.875 847.591 267.792 850.691ZM426.386 881.813C423.765 888.64 425.766 890.484 434.358 889.136C447.488 887.078 449.957 876.896 437.932 874.376C433.507 873.446 428.309 876.795 426.386 881.813ZM352.357 929.622C354.274 932.723 358.378 935.26 361.479 935.26C364.58 935.26 365.549 932.723 363.633 929.622C361.716 926.521 357.612 923.984 354.511 923.984C351.41 923.984 350.44 926.521 352.357 929.622Z" fill="white"/>
<path fill-rule="evenodd" clip-rule="evenodd" d="M242.422 16.6C205.872 36.6766 138.857 100.887 104.05 149.176C71.3792 194.499 36.4817 268.751 24.1012 319.294L14.0943 360.152C12.1549 369.844 5.63774 407.094 5.63774 414.457C3.7585 421.442 0 436.155 0 439.123V477.731V516.34L1.94504 556.11C3.81113 570.836 6.69196 599.381 8.33817 619.536C9.54662 636.112 14.7878 666.399 15.6391 667.205C16.4903 668.011 22.2972 687.118 28.5438 709.659C34.7904 732.205 38.3985 752.157 36.555 753.995C45.7511 782.766 65.1124 841.345 68.9887 845.499C71.2776 845.256 81.916 862.463 92.6333 883.741L112.112 922.428C123.907 942.657 149.034 985.005 155.177 992.564C170.45 1010.92 226.993 1072.18 230.746 1075.94L258.439 1095.83C355.774 1165.77 583.211 1227.99 591.053 1186.82C593.59 1173.48 587.196 1169.57 538.543 1154.75C458.172 1130.26 435.204 1110.62 395.153 1032.11C384.819 1011.85 384.272 1007.85 391.455 1005.09C396.935 1002.99 410.775 1013.61 430.913 1035.36C522.943 1134.77 688.19 1132.99 789.675 1031.5C903.235 917.935 910.829 674.873 804.429 558.974C778.061 530.249 733.991 506.919 705.944 506.834C659.1 506.693 623.554 541.818 637.203 574.766C643.996 591.183 663.26 600.965 713.927 613.741C737.915 619.79 759.242 641.979 768.364 652.056C773.326 657.536 782.464 673.367 788.672 687.237L799.958 712.444L803.3 723.379C804.891 732.056 807.118 820.032 797.833 863.856C775.868 967.526 713.673 1035.28 623.627 1053.65C562.176 1066.17 491.169 1047.52 454.462 1009.21L438.519 992.564L456.475 983.278L474.431 973.987L501.948 999.73C517.08 1013.89 534.675 1025.47 541.052 1025.47C559.51 1025.47 599.419 971.379 606.201 927.133C606.201 906.655 584.188 860.58 587.771 848.805C590.853 838.679 585.724 804.778 576.508 797.611C573.017 794.895 564.734 771.394 566.27 764.334C567.498 758.687 514.971 694.139 488.553 662.571C474.109 645.668 469.512 634.812 462.293 625.969C450.844 611.946 428.466 554.317 428.466 534.161C428.466 533.447 431.934 496.675 434.707 484.322C440.875 456.882 455.787 418.257 466.966 400.757L475.271 387.756L505.365 342.252C520.012 323.218 559.713 280.156 593.595 246.56C653.552 187.108 664.371 168.503 638.979 168.503C613.445 168.503 515.49 240.51 467.299 294.702C447.646 316.808 446.795 317.163 442.888 304.833C439.866 295.316 436.004 292.965 427.739 295.587C416.994 298.998 416.932 298.434 425.676 277.501C430.637 265.616 440.903 245.291 448.497 232.335C456.086 219.379 462.293 207.517 462.293 205.978C462.293 204.433 448.757 207.027 432.204 211.734L402.121 220.293L382.874 202.437C361.716 182.806 335.438 168.035 303.027 157.554C279.512 149.948 278.216 147.321 290.162 131.523C311.117 103.813 290.895 108.188 232.928 143.893C194.727 167.426 140.943 218.979 140.943 232.07C140.943 235.351 139.505 236.597 137.746 234.838C133.715 230.807 159.514 179.372 182.335 145.951C191.863 131.997 223.175 96.2977 251.921 66.614C292.039 25.1978 302.644 11.103 297.547 6.00633C287.416 -4.12502 276.248 -1.98261 242.422 16.6ZM197.619 113.054C213.669 93.4054 224.607 75.2964 221.929 72.8101C219.245 70.3238 211.426 66.5858 204.548 64.5111C194.445 61.461 186.484 66.4843 163.116 90.6598C56.5293 200.898 11.2755 322.457 11.2755 498.502C11.2755 631.641 43.6134 763.941 106.773 889.21C155.934 986.718 242.946 1095.22 254.875 1073.9C262.097 1060.99 281.068 1062.82 314.9 1079.68C345.406 1094.88 362.127 1113.55 363.638 1134.1C364.304 1143.07 372.732 1148.95 399.128 1158.82C441.833 1174.79 542.67 1195.78 565.649 1193.48C597.017 1190.35 588.662 1178.86 545.804 1166.21C480.114 1146.82 443.643 1124.78 421.126 1090.87C396.923 1054.41 377.727 1017.18 377.727 1006.68C377.727 1001.72 386.432 997.328 400.797 995.028C413.481 992.998 433.969 986.188 446.315 979.884L468.77 968.434L453.165 947.974C401.648 880.426 393.851 861.815 406.947 837.634C410.617 830.863 412.985 816.131 412.207 804.906C410.589 781.48 424.001 745.386 438.394 734.46C449.129 726.307 462.817 724.182 461.396 730.885C460.906 733.208 462.49 739.675 464.926 745.251C470.563 758.184 465.833 793.895 455.713 814.789C448.074 830.564 448.971 832.464 492.748 892.976C517.424 927.085 543.279 964.876 550.202 976.953L562.785 998.912L580.877 963.072C598.951 927.26 598.962 927.215 589.795 901.647C584.755 887.575 580.64 863.083 580.657 847.224C580.679 826.149 577.392 814.203 568.468 802.854C561.753 794.312 556.257 780.155 556.257 771.394C556.257 755.456 548.307 744.287 479.725 663.845C436.85 613.555 422.953 581.266 422.885 531.765C422.75 436.811 464.79 363.541 591.706 237.505C636.532 192.988 647.086 179.778 637.812 179.778C631.199 179.778 625.786 182.237 625.786 185.242C625.786 188.241 622.489 189.436 618.458 187.886C608.141 183.928 538.368 234.235 495.386 276.621C475.508 296.23 443.023 333.203 423.206 358.783C403.39 384.367 385.191 405.295 382.756 405.295C374.953 405.295 411.644 287.017 432.165 246.024C446.733 216.915 443.863 213.668 413.696 225.141C401.4 229.815 397.222 229.291 393.49 222.627C390.902 218.004 381.245 208.848 372.027 202.285C356.552 191.263 354.302 191.026 342.694 199.162C316.456 217.536 288.572 204.473 295.456 177.033C297.852 167.493 296.679 162.836 291.859 162.78C275.814 162.583 269.167 153.545 275.865 141.029C280.234 132.865 280.375 129.037 276.31 129.037C262.785 129.037 195.832 176.959 171.37 204.146L145.104 233.339L161.346 236.665L177.588 239.991L158.29 242.303C147.674 243.572 137.915 247.896 136.596 251.91C134.871 257.153 138.705 258.36 150.256 256.2C163.787 253.675 163.037 254.622 145.509 262.233C128.647 269.545 122.829 276.48 114.795 298.812C100.081 339.743 95.2379 332.16 108.092 288.308C124.712 231.585 164.655 153.393 197.619 113.054ZM418.939 349.598C432.103 332.335 438.609 318.691 436.404 312.952C428.647 292.734 416.227 305.966 403.976 347.507C399.173 363.789 395.858 377.106 396.602 377.106C397.352 377.106 407.398 364.731 418.939 349.598ZM822.689 977.663C865.074 907.155 883.177 795.862 866.027 711.22C860.896 685.895 852.084 654.311 846.447 641.034C836.71 618.116 835.865 617.507 829.691 629.042C826.117 635.717 814.622 644.011 804.153 647.467L785.108 653.753L799.462 688.798C811.758 718.803 813.737 731.934 813.252 780.217C811.938 911.835 762.952 1004.43 672.117 1047C643.889 1060.24 632.873 1062.11 583.504 1062.11C519.076 1062.11 491.22 1052.66 452.461 1017.65C412.478 981.519 402.234 997.418 440.255 1036.6C468.624 1065.83 520.728 1090.75 569.505 1098.42C667.325 1113.8 770.405 1064.63 822.689 977.663ZM547.704 1015.6C558.608 1004.7 548.482 984.434 494.766 909.636C440.418 833.969 424.289 821.256 411.937 844.343C403.773 859.588 404.292 861.95 415.782 862.052C423.398 862.119 423.917 863.236 418.07 866.945C407.331 873.75 418.725 893.726 464.971 949.141C508.274 1001.03 538.216 1025.09 547.704 1015.6Z" fill="#F2B751"/>
<path fill-rule="evenodd" clip-rule="evenodd" d="M278.148 250.613C268.868 274.8 297.209 298.175 335.811 298.175C362.398 298.175 364.738 276.277 340.479 254.481C323.334 239.078 283.521 236.609 278.148 250.613ZM304.386 267.104C305.938 268.974 306 269 308 270.14C308 267.5 309 265.68 309.5 265C311.213 262.67 314.062 262.509 316.244 262.82C317.179 262.953 317.751 262.066 316.96 261.55C314.256 259.787 309.878 258.709 306.235 258.709C299.064 258.709 298.72 260.277 304.386 267.104ZM332.958 281.261C336.239 281.261 337.361 278.724 335.444 275.623C333.527 272.522 330.844 269.985 329.474 269.985C330 271 330.5 273.377 329.474 276C328.739 277.877 327 278.363 325.5 278.5C325.965 279.503 331.335 281.261 332.958 281.261Z" fill="#F2B751"/>
<path d="M203.989 255.845C205.049 262.024 213.495 270.684 222.757 275.088C232.026 279.496 242.918 287.756 246.971 293.456C251.78 300.216 260.587 303.52 272.341 302.967C288.786 302.195 289.04 301.924 275.25 299.815C255.659 296.816 242.704 282.417 253.562 275.708C259.769 271.868 259.448 269.292 251.792 261.635C243.493 253.336 242.422 253.274 242.422 261.128C242.422 274.388 221.878 271.868 211.285 257.3C202.817 245.658 202.219 245.534 203.989 255.845Z" fill="#F2B751"/>
<path fill-rule="evenodd" clip-rule="evenodd" d="M191.682 195.711C191.682 204.811 232.9 236.158 244.869 236.158C254.176 236.158 246.03 212.828 233.204 202.742C218.546 191.212 191.682 186.662 191.682 195.711ZM214.5 205.5C217 201 220.688 202.742 219.149 201.766C205.083 192.853 201.041 196.506 211.803 208.402C214.606 211.5 212.667 208.799 214.5 205.5ZM235 224C239.603 226.5 241.52 222.345 239.603 219.244C237.686 216.143 236.5 214 236 213.5C236 214.5 237.5 215.5 236 218.5C234.5 221.5 228 221 235 224Z" fill="#F2B751"/>
<path d="M149.168 276.001C143.102 285.816 150.008 287.897 157.743 278.577C162.191 273.221 162.62 269.985 158.876 269.985C155.584 269.985 151.209 272.691 149.168 276.001Z" fill="#F2B751"/>
<path d="M287.704 329.516C287.602 332.797 291.25 340.408 295.8 346.43C300.355 352.445 304.16 354.689 304.256 351.402C304.358 348.121 300.71 340.51 296.16 334.489C291.605 328.473 287.8 326.229 287.704 329.516Z" fill="#F2B751"/>
<path d="M324.169 320.727C326.085 323.827 330.19 326.364 333.29 326.364C336.391 326.364 337.361 323.827 335.444 320.727C333.527 317.626 329.423 315.089 326.322 315.089C323.222 315.089 322.252 317.626 324.169 320.727Z" fill="#F2B751"/>
<path d="M312.927 337.674C318.553 343.898 324.383 347.76 325.877 346.266C329.665 342.478 315.605 326.364 308.513 326.364C305.311 326.364 307.295 331.455 312.927 337.674Z" fill="#F2B751"/>
<path d="M187.144 481.407C187.257 490.71 188.52 493.833 189.952 488.348C191.384 482.862 191.288 475.251 189.743 471.434C188.198 467.617 187.031 472.105 187.144 481.407Z" fill="#F2B751"/>
<path d="M220.316 476.237C220.587 482.806 221.923 484.142 223.721 479.648C225.351 475.578 225.148 470.712 223.276 468.84C221.404 466.969 220.074 470.295 220.316 476.237Z" fill="#F2B751"/>
<path d="M248.06 529.33C248.06 532.431 250.749 534.968 254.03 534.968C257.311 534.968 258.433 532.431 256.516 529.33C254.599 526.229 251.916 523.692 250.546 523.692C249.176 523.692 248.06 526.229 248.06 529.33Z" fill="#F2B751"/>
<path d="M242.422 669.613C242.422 672.713 244.959 676.818 248.06 678.735C251.16 680.652 253.697 679.682 253.697 676.581C253.697 673.48 251.16 669.376 248.06 667.459C244.959 665.542 242.422 666.512 242.422 669.613Z" fill="#F2B751"/>
<path d="M158.301 690.478C158.572 697.047 159.908 698.383 161.707 693.889C163.336 689.819 163.133 684.953 161.261 683.081C159.389 681.21 158.059 684.536 158.301 690.478Z" fill="#F2B751"/>
<path d="M192.72 712.585C196.255 720.354 200.24 725.614 201.571 724.289C205.551 720.303 196.971 698.467 191.423 698.467C188.599 698.467 189.179 704.821 192.72 712.585Z" fill="#F2B751"/>
<path d="M231.327 712.895C231.225 716.176 234.873 723.787 239.423 729.809C243.978 735.824 247.783 738.068 247.879 734.781C247.981 731.5 244.333 723.889 239.783 717.867C235.228 711.852 231.423 709.608 231.327 712.895Z" fill="#F2B751"/>
<path d="M315.712 706.924C315.712 711.576 318.17 715.381 321.175 715.381C324.174 715.381 325.172 711.576 323.391 706.924C321.604 702.273 319.145 698.467 317.928 698.467C316.71 698.467 315.712 702.273 315.712 706.924Z" fill="#F2B751"/>
<path d="M293.161 752.028C293.161 756.679 295.619 760.485 298.624 760.485C301.623 760.485 302.621 756.679 300.84 752.028C299.053 747.376 296.595 743.571 295.377 743.571C294.159 743.571 293.161 747.376 293.161 752.028Z" fill="#F2B751"/>
<path d="M225.509 788.009C225.509 791.11 228.046 795.214 231.146 797.131C234.247 799.048 236.784 798.078 236.784 794.977C236.784 791.877 234.247 787.772 231.146 785.855C228.046 783.938 225.509 784.908 225.509 788.009Z" fill="#F2B751"/>
<path d="M281.886 799.285C281.886 802.386 284.423 806.49 287.523 808.407C290.624 810.324 293.161 809.354 293.161 806.253C293.161 803.152 290.624 799.048 287.523 797.131C284.423 795.214 281.886 796.184 281.886 799.285Z" fill="#F2B751"/>
<path d="M338.263 783.036C338.263 786.137 340.952 788.674 344.233 788.674C347.514 788.674 348.636 786.137 346.72 783.036C344.803 779.935 342.119 777.398 340.749 777.398C339.379 777.398 338.263 779.935 338.263 783.036Z" fill="#F2B751"/>
<path d="M321.35 828.14C321.35 831.24 324.039 833.778 327.32 833.778C330.601 833.778 331.723 831.24 329.806 828.14C327.89 825.039 325.206 822.502 323.836 822.502C322.466 822.502 321.35 825.039 321.35 828.14Z" fill="#F2B751"/>
<path d="M267.792 850.691C269.708 853.792 272.392 856.329 273.762 856.329C275.132 856.329 276.248 853.792 276.248 850.691C276.248 847.591 273.559 845.053 270.278 845.053C266.997 845.053 265.875 847.591 267.792 850.691Z" fill="#F2B751"/>
<path d="M426.386 881.813C423.765 888.64 425.766 890.484 434.358 889.136C447.488 887.078 449.957 876.896 437.932 874.376C433.507 873.446 428.309 876.795 426.386 881.813Z" fill="#F2B751"/>
<path d="M352.357 929.622C354.274 932.723 358.378 935.26 361.479 935.26C364.58 935.26 365.549 932.723 363.633 929.622C361.716 926.521 357.612 923.984 354.511 923.984C351.41 923.984 350.44 926.521 352.357 929.622Z" fill="#F2B751"/>
<path d="M603.236 202.33C603.236 205.431 606.889 207.968 611.359 207.968C615.83 207.968 621.051 205.431 622.968 202.33C624.885 199.229 621.226 196.692 614.844 196.692C608.462 196.692 603.236 199.229 603.236 202.33Z" fill="#F2B751"/>
</svg>
