<svg width="440" height="17" viewBox="0 0 440 17" fill="none" xmlns="http://www.w3.org/2000/svg">
<path d="M33.2773 1H409.188L436.099 14.1009C437.053 14.5653 436.722 16 435.661 16H409.188H33.2773H4.65194C3.57477 16 3.25898 14.531 4.241 14.0883L33.2773 1Z" fill="#FBD9A0"/>
<path d="M33.2773 1H409.188M33.2773 1L4.241 14.0883C3.25898 14.531 3.57477 16 4.65194 16H33.2773M33.2773 1V16M409.188 1L436.099 14.1009C437.053 14.5653 436.722 16 435.661 16H409.188M409.188 1V16M33.2773 16H409.188" stroke="#FFDC9E" stroke-width="2"/>
<rect x="34" y="2" width="375" height="13" fill="#FCCF82"/>
</svg>
